#N canvas 1915 1021 1920 976 12;
#X obj 558 89 vsl 45 420 0 1 0 0 empty empty CHANNEL_1 0 -9 0 10 #00f8fc #000000 #000000 0 1;
#X obj 911 635 hsl 256 30 0 1 0 0 empty empty CROSSFADER -2 -8 0 10 #00fc04 #000000 #000000 0 1;
#X obj 1041 219 vsl 15 128 0 1 0 0 empty empty MASTER_CHANNEL -25 -9 0 10 #b8b8b8 #000000 #000000 0 1;
#X obj 4 -217 loadbang;
#X msg 206 -216 0.5;
#N canvas 1347 193 450 439 crossfader 0;
#X obj 116 27 inlet;
#X floatatom 128 90 5 0 0 0 - - - 0;
#X msg 151 129 1;
#X obj 128 157 -;
#X floatatom 126 194 5 0 0 0 - - - 0;
#X obj 126 227 * -1;
#X floatatom 126 256 5 0 0 0 - - - 0;
#X obj 122 289 hsl 128 15 0 1 0 0 empty empty empty -2 -8 0 10 #fcfcfc #000000 #000000 0 1;
#X obj 121 329 outlet;
#X connect 0 0 1 0;
#X connect 1 0 2 0;
#X connect 1 0 3 0;
#X connect 2 0 3 1;
#X connect 3 0 4 0;
#X connect 4 0 5 0;
#X connect 5 0 6 0;
#X connect 6 0 7 0;
#X connect 7 0 8 0;
#X restore 988 1084 pd crossfader;
#X floatatom 808 195 5 -15 15 0 - - - 0;
#X obj 648 194 hsl 150 20 -15 15 0 0 empty empty MID -2 -8 0 10 #fc0400 #000000 #000000 0 1;
#X msg 83 -219 0;
#X obj 619 195 bng 20 250 50 0 empty empty empty 17 7 0 10 #9c9c9c #000000 #000000;
#X floatatom 808 149 5 -15 15 0 - - - 0;
#X obj 648 148 hsl 150 20 -15 15 0 0 empty empty LOW -2 -8 0 10 #fc0400 #000000 #000000 0 1;
#X obj 619 149 bng 20 250 50 0 empty empty empty 17 7 0 10 #9c9c9c #000000 #000000;
#X msg 121 -218 0;
#X floatatom 807 240 5 -15 15 0 - - - 0;
#X obj 647 239 hsl 150 20 -15 15 0 0 empty empty HIGH -2 -8 0 10 #fc0400 #000000 #000000 0 1;
#X obj 618 240 bng 20 250 50 0 empty empty empty 17 7 0 10 #9c9c9c #000000 #000000;
#X msg 161 -217 0;
#X obj 654 97 hsl 127 15 0 2 0 0 empty empty GAIN -2 -8 0 10 #7c7c7c #000000 #000000 0 1;
#X obj 867 128 vu 40 320 empty dB_METER -1 -8 0 10 #404040 #000000 1 0;
#X floatatom 800 96 5 0 35 0 - - - 0;
#X obj 563 542 tgl 45 0 empty empty CUE 10 -7 0 15 #fc8000 #000000 #000000 0 1;
#X obj 646 290 hsl 155 25 -20000 20000 0 0 empty empty LOWPASS-HIPASS_FILTER -2 -8 0 10 #cc3060 #000000 #000000 0 1;
#N canvas 1915 1021 1920 976 lowpass-hipass 0;
#X obj 627 185 inlet~;
#X obj 689 413 outlet~;
#X obj 948 197 inlet;
#N canvas 1073 127 450 300 left 0;
#X obj 188 18 inlet~;
#X obj 617 661 outlet~;
#X obj 451 338 < 0;
#X floatatom 570 85 7 -20000 20000 0 - - - 0;
#X msg 427 432 0;
#X msg 474 433 1;
#X obj 434 386 select 0 1;
#X obj 427 413 bng 15 250 50 0 empty empty empty 17 7 0 10 #fcfcfc #000000 #000000;
#X obj 474 413 bng 15 250 50 0 empty empty empty 17 7 0 10 #fcfcfc #000000 #000000;
#X obj 408 503 *~;
#X obj 389 388 lop~;
#X obj 339 277 + 20000;
#X floatatom 379 327 5 0 0 0 - - - 0;
#X obj 621 370 == 0;
#X obj 615 490 *~;
#X msg 821 421 0;
#X msg 868 422 1;
#X obj 828 375 select 0 1;
#X obj 821 402 bng 15 250 50 0 empty empty empty 17 7 0 10 #fcfcfc #000000 #000000;
#X obj 868 402 bng 15 250 50 0 empty empty empty 17 7 0 10 #fcfcfc #000000 #000000;
#X obj 802 492 *~;
#X floatatom 773 316 5 0 0 0 - - - 0;
#X obj 845 327 > 0;
#X obj 783 377 hip~;
#X obj 570 17 inlet;
#X connect 0 0 10 0;
#X connect 0 0 14 0;
#X connect 0 0 23 0;
#X connect 2 0 6 0;
#X connect 3 0 2 0;
#X connect 3 0 11 0;
#X connect 3 0 13 0;
#X connect 3 0 22 0;
#X connect 3 0 21 0;
#X connect 4 0 9 1;
#X connect 5 0 9 1;
#X connect 6 0 7 0;
#X connect 6 1 8 0;
#X connect 7 0 4 0;
#X connect 8 0 5 0;
#X connect 9 0 1 0;
#X connect 10 0 9 0;
#X connect 11 0 12 0;
#X connect 12 0 10 1;
#X connect 13 0 14 1;
#X connect 14 0 1 0;
#X connect 15 0 20 1;
#X connect 16 0 20 1;
#X connect 17 0 18 0;
#X connect 17 1 19 0;
#X connect 18 0 15 0;
#X connect 19 0 16 0;
#X connect 20 0 1 0;
#X connect 21 0 23 1;
#X connect 22 0 17 0;
#X connect 23 0 20 0;
#X connect 24 0 3 0;
#X restore 689 375 pd left;
#N canvas 1073 127 450 300 right 0;
#X obj 188 18 inlet~;
#X obj 617 661 outlet~;
#X obj 451 338 < 0;
#X floatatom 570 85 7 -20000 20000 0 - - - 0;
#X msg 427 432 0;
#X msg 474 433 1;
#X obj 434 386 select 0 1;
#X obj 427 413 bng 15 250 50 0 empty empty empty 17 7 0 10 #fcfcfc #000000 #000000;
#X obj 474 413 bng 15 250 50 0 empty empty empty 17 7 0 10 #fcfcfc #000000 #000000;
#X obj 408 503 *~;
#X obj 389 388 lop~;
#X obj 339 277 + 20000;
#X floatatom 379 327 5 0 0 0 - - - 0;
#X obj 621 370 == 0;
#X obj 615 490 *~;
#X msg 821 421 0;
#X msg 868 422 1;
#X obj 828 375 select 0 1;
#X obj 821 402 bng 15 250 50 0 empty empty empty 17 7 0 10 #fcfcfc #000000 #000000;
#X obj 868 402 bng 15 250 50 0 empty empty empty 17 7 0 10 #fcfcfc #000000 #000000;
#X obj 802 492 *~;
#X floatatom 773 316 5 0 0 0 - - - 0;
#X obj 845 327 > 0;
#X obj 783 377 hip~;
#X obj 570 17 inlet;
#X connect 0 0 10 0;
#X connect 0 0 14 0;
#X connect 0 0 23 0;
#X connect 2 0 6 0;
#X connect 3 0 2 0;
#X connect 3 0 11 0;
#X connect 3 0 13 0;
#X connect 3 0 22 0;
#X connect 3 0 21 0;
#X connect 4 0 9 1;
#X connect 5 0 9 1;
#X connect 6 0 7 0;
#X connect 6 1 8 0;
#X connect 7 0 4 0;
#X connect 8 0 5 0;
#X connect 9 0 1 0;
#X connect 10 0 9 0;
#X connect 11 0 12 0;
#X connect 12 0 10 1;
#X connect 13 0 14 1;
#X connect 14 0 1 0;
#X connect 15 0 20 1;
#X connect 16 0 20 1;
#X connect 17 0 18 0;
#X connect 17 1 19 0;
#X connect 18 0 15 0;
#X connect 19 0 16 0;
#X connect 20 0 1 0;
#X connect 21 0 23 1;
#X connect 22 0 17 0;
#X connect 23 0 20 0;
#X connect 24 0 3 0;
#X restore 901 381 pd right;
#X obj 901 405 outlet~;
#X obj 746 190 inlet~;
#X connect 0 0 3 0;
#X connect 2 0 3 1;
#X connect 2 0 4 1;
#X connect 3 0 1 0;
#X connect 4 0 5 0;
#X connect 6 0 4 0;
#X restore 280 985 pd lowpass-hipass filter;
#X msg 239 -217 0;
#X obj 613 289 bng 25 250 50 0 empty empty empty 17 7 0 10 #9c9c9c #000000 #000000;
#X obj 648 350 hsl 155 25 0 1 0 0 empty empty FX_AMOUNT -2 -8 0 10 #9c00fc #000000 #000000 0 1;
#X obj 614 351 bng 25 250 50 0 empty empty empty 17 7 0 10 #9c9c9c #000000 #000000;
#X msg 278 -218 0;
#X obj 9 -193 * 100;
#X floatatom 812 355 5 0 0 0 - - - 0;
#X obj 648 400 hsl 155 25 0 1 0 0 empty empty FEEDBACK -2 -8 0 10 #e0c4fc #000000 #000000 0 1;
#X obj 614 400 bng 25 250 50 0 empty empty empty 17 7 0 10 #9c9c9c #000000 #000000;
#X floatatom 812 405 5 0 0 0 - - - 0;
#X msg 312 -217 0;
#X obj 648 448 hsl 155 25 20 20000 1 0 empty empty FX_FREQUENCY/INTENSITY -2 -8 0 10 #c4c4fc #000000 #000000 0 1;
#X obj 614 449 bng 25 250 50 0 empty empty empty 17 7 0 10 #9c9c9c #000000 #000000;
#X floatatom 812 453 6 0 0 0 - - - 0;
#X msg 346 -217 0;
#N canvas 1916 0 1920 976 FX 0;
#X obj 393 21 inlet;
#X obj 1051 28 inlet;
#N canvas 951 1021 1920 976 delay 0;
#X obj 151 781 outlet~;
#X obj 831 156 inlet;
#X obj 707 130 inlet;
#X floatatom 256 564 5 0 0 0 - - - 0;
#X obj 254 655 *~;
#X obj 152 189 inlet~;
#X obj 707 154 / 10;
#X obj 469 424 *~ 0.75;
#X obj 246 332 delwrite~ audio-buffer-delay-left-1 5000;
#X obj 253 611 delread~ audio-buffer-delay-left-1;
#X connect 1 0 4 1;
#X connect 2 0 6 0;
#X connect 3 0 9 0;
#X connect 4 0 0 0;
#X connect 5 0 0 0;
#X connect 5 0 8 0;
#X connect 6 0 3 0;
#X connect 7 0 8 0;
#X connect 9 0 4 0;
#X connect 9 0 7 0;
#X restore 774 552 pd delay;
#N canvas 1915 1021 1920 976 reverb 0;
#X obj 76 127 rev1~;
#X obj 75 66 inlet~;
#X obj 135 64 inlet;
#X obj 58 204 outlet~;
#N canvas 1074 274 1920 976 dry_wet 0;
#X obj 398 349 - 1;
#X floatatom 398 410 5 0 0 0 - - - 0;
#X obj 398 379 * -1;
#X floatatom 491 403 5 0 0 0 - - - 0;
#X obj 275 252 inlet~;
#X obj 351 250 inlet~;
#X obj 411 470 *~;
#X obj 490 472 *~;
#X obj 449 525 +~;
#X obj 449 549 outlet~;
#X obj 434 211 inlet;
#X obj 434 249 expr if ($f1 > 1 \, 1 \, $f1);
#X obj 434 273 expr if ($f1 < 0 \, 0 \, $f1);
#X text 344 223 WET INPUT;
#X text 261 223 DRY INPUT;
#X text 432 190 SLIDER;
#X connect 0 0 2 0;
#X connect 1 0 6 1;
#X connect 2 0 1 0;
#X connect 3 0 7 1;
#X connect 4 0 6 0;
#X connect 5 0 7 0;
#X connect 6 0 8 0;
#X connect 7 0 8 1;
#X connect 8 0 9 0;
#X connect 10 0 11 0;
#X connect 11 0 12 0;
#X connect 12 0 0 0;
#X connect 12 0 3 0;
#X restore 43 159 pd dry_wet;
#X connect 0 0 4 1;
#X connect 1 0 0 0;
#X connect 1 0 4 0;
#X connect 2 0 0 1;
#X connect 2 0 4 2;
#X connect 4 0 3 0;
#X restore 863 551 pd reverb;
#N canvas 1916 0 1920 976 distortion 0;
#X obj 98 281 *~;
#X floatatom 140 255 5 0 0 0 - - - 0;
#X obj 98 397 clip~ -0.3 0.3;
#X obj 98 181 inlet~;
#X obj 172 162 inlet;
#X obj 163 204 * 100;
#X obj 68 507 outlet~;
#N canvas 1074 274 1920 976 dry_wet 0;
#X obj 398 349 - 1;
#X floatatom 398 410 5 0 0 0 - - - 0;
#X obj 398 379 * -1;
#X floatatom 491 403 5 0 0 0 - - - 0;
#X obj 275 252 inlet~;
#X obj 351 250 inlet~;
#X obj 411 470 *~;
#X obj 490 472 *~;
#X obj 449 525 +~;
#X obj 449 549 outlet~;
#X obj 434 211 inlet;
#X obj 434 249 expr if ($f1 > 1 \, 1 \, $f1);
#X obj 434 273 expr if ($f1 < 0 \, 0 \, $f1);
#X text 344 223 WET INPUT;
#X text 261 223 DRY INPUT;
#X text 432 190 SLIDER;
#X connect 0 0 2 0;
#X connect 1 0 6 1;
#X connect 2 0 1 0;
#X connect 3 0 7 1;
#X connect 4 0 6 0;
#X connect 5 0 7 0;
#X connect 6 0 8 0;
#X connect 7 0 8 1;
#X connect 8 0 9 0;
#X connect 10 0 11 0;
#X connect 11 0 12 0;
#X connect 12 0 0 0;
#X connect 12 0 3 0;
#X restore 69 448 pd dry_wet;
#X connect 0 0 2 0;
#X connect 1 0 0 1;
#X connect 2 0 7 1;
#X connect 3 0 0 0;
#X connect 3 0 7 0;
#X connect 4 0 5 0;
#X connect 4 0 7 2;
#X connect 5 0 1 0;
#X connect 7 0 6 0;
#X restore 395 554 pd distortion;
#N canvas 1916 0 1920 976 chorus/flanger 0;
#X obj 448 251 expr~ $v1 * 2 - 1;
#X obj 1118 376 expr~ ($v1 + 1) /2;
#X obj 1121 477 +~ 5;
#X obj 447 187 inlet~;
#X obj 767 690 outlet~;
#X obj 1114 326 osc~ 2;
#X obj 1428 130 inlet;
#X floatatom 1428 166 5 0 0 0 - - - 0;
#X obj 1327 165 / 10000;
#X obj 1327 128 inlet;
#N canvas 1074 274 1920 976 dry_wet 0;
#X obj 398 349 - 1;
#X floatatom 398 410 5 0 0 0 - - - 0;
#X obj 398 379 * -1;
#X floatatom 491 403 5 0 0 0 - - - 0;
#X obj 275 252 inlet~;
#X obj 351 250 inlet~;
#X obj 411 470 *~;
#X obj 490 472 *~;
#X obj 449 525 +~;
#X obj 449 549 outlet~;
#X obj 434 211 inlet;
#X obj 434 249 expr if ($f1 > 1 \, 1 \, $f1);
#X obj 434 273 expr if ($f1 < 0 \, 0 \, $f1);
#X text 344 223 WET INPUT;
#X text 261 223 DRY INPUT;
#X text 432 190 SLIDER;
#X connect 0 0 2 0;
#X connect 1 0 6 1;
#X connect 2 0 1 0;
#X connect 3 0 7 1;
#X connect 4 0 6 0;
#X connect 5 0 7 0;
#X connect 6 0 8 0;
#X connect 7 0 8 1;
#X connect 8 0 9 0;
#X connect 10 0 11 0;
#X connect 11 0 12 0;
#X connect 12 0 0 0;
#X connect 12 0 3 0;
#X restore 768 642 pd dry_wet;
#X obj 1104 428 *~ 1;
#X obj 448 283 delwrite~ \$0-buffer-left-1 100;
#X obj 766 488 delread4~ \$0-buffer-left-1;
#X obj 1117 524 delread4~ \$0-buffer-left-1;
#X connect 0 0 12 0;
#X connect 1 0 11 0;
#X connect 2 0 14 0;
#X connect 3 0 0 0;
#X connect 3 0 10 0;
#X connect 5 0 1 0;
#X connect 6 0 7 0;
#X connect 7 0 10 2;
#X connect 8 0 5 0;
#X connect 9 0 8 0;
#X connect 10 0 4 0;
#X connect 11 0 2 0;
#X connect 13 0 10 1;
#X connect 14 0 10 1;
#X restore 629 553 pd chorus/flanger;
#X obj 125 160 inlet~;
#X obj 391 806 outlet~;
#N canvas -126 -28 1920 976 bitcrusher 0;
#X obj 244 229 expr~ round($v1 / $f2);
#X obj 397 124 inlet;
#X obj 244 143 inlet~;
#X obj 182 356 outlet~;
#X obj 243 267 *~;
#X obj 397 194 + 0.2;
#N canvas 1074 274 1920 976 dry_wet 0;
#X obj 398 349 - 1;
#X floatatom 398 410 5 0 0 0 - - - 0;
#X obj 398 379 * -1;
#X floatatom 491 403 5 0 0 0 - - - 0;
#X obj 275 252 inlet~;
#X obj 351 250 inlet~;
#X obj 411 470 *~;
#X obj 490 472 *~;
#X obj 449 525 +~;
#X obj 449 549 outlet~;
#X obj 434 211 inlet;
#X obj 434 249 expr if ($f1 > 1 \, 1 \, $f1);
#X obj 434 273 expr if ($f1 < 0 \, 0 \, $f1);
#X text 344 223 WET INPUT;
#X text 261 223 DRY INPUT;
#X text 432 190 SLIDER;
#X connect 0 0 2 0;
#X connect 1 0 6 1;
#X connect 2 0 1 0;
#X connect 3 0 7 1;
#X connect 4 0 6 0;
#X connect 5 0 7 0;
#X connect 6 0 8 0;
#X connect 7 0 8 1;
#X connect 8 0 9 0;
#X connect 10 0 11 0;
#X connect 11 0 12 0;
#X connect 12 0 0 0;
#X connect 12 0 3 0;
#X restore 181 308 pd dry_wet;
#X obj 397 148 / 20000;
#X obj 527 132 inlet;
#X floatatom 397 172 5 0 0 0 - - - 0;
#X connect 0 0 4 0;
#X connect 1 0 7 0;
#X connect 2 0 0 0;
#X connect 2 0 6 0;
#X connect 4 0 6 1;
#X connect 5 0 4 1;
#X connect 5 0 0 1;
#X connect 6 0 3 0;
#X connect 7 0 5 0;
#X connect 7 0 9 0;
#X connect 8 0 6 2;
#X restore 508 550 pd bitcrusher;
#N canvas -40 43 1920 976 audio_router 0;
#X obj 1407 282 == 0;
#X obj 1461 281 == 1;
#X obj 1517 282 == 2;
#X obj 1572 284 == 3;
#X obj 760 505 *~;
#X obj 853 506 *~;
#X obj 947 503 *~;
#X obj 1032 498 *~;
#X obj 755 233 inlet~;
#X obj 1490 219 inlet;
#X obj 760 526 outlet~;
#X obj 853 527 outlet~;
#X obj 947 524 outlet~;
#X obj 1032 519 outlet~;
#X obj 1110 502 *~;
#X obj 1204 499 *~;
#X obj 1289 494 *~;
#X obj 1110 523 outlet~;
#X obj 1204 520 outlet~;
#X obj 1289 515 outlet~;
#X obj 1636 283 == 4;
#X obj 1692 284 == 5;
#X obj 1747 286 == 6;
#X obj 846 230 inlet~;
#X obj 940 227 inlet~;
#X obj 1026 226 inlet~;
#X obj 1110 228 inlet~;
#X obj 1204 225 inlet~;
#X obj 1290 224 inlet~;
#X connect 0 0 4 1;
#X connect 1 0 5 1;
#X connect 2 0 6 1;
#X connect 3 0 7 1;
#X connect 4 0 10 0;
#X connect 5 0 11 0;
#X connect 6 0 12 0;
#X connect 7 0 13 0;
#X connect 8 0 4 0;
#X connect 9 0 0 0;
#X connect 9 0 1 0;
#X connect 9 0 3 0;
#X connect 9 0 2 0;
#X connect 9 0 20 0;
#X connect 9 0 21 0;
#X connect 9 0 22 0;
#X connect 14 0 17 0;
#X connect 15 0 18 0;
#X connect 16 0 19 0;
#X connect 20 0 14 1;
#X connect 21 0 15 1;
#X connect 22 0 16 1;
#X connect 23 0 5 0;
#X connect 24 0 6 0;
#X connect 25 0 7 0;
#X connect 26 0 14 0;
#X connect 27 0 15 0;
#X connect 28 0 16 0;
#X restore 315 682 pd audio_router;
#X f 17;
#N canvas 245 746 1920 976 AM 0;
#X obj 248 222 inlet~;
#X obj 249 310 *~;
#X obj 360 277 osc~;
#X floatatom 360 252 5 0 0 0 - - - 0;
#X obj 360 220 inlet;
#X obj 216 482 outlet~;
#N canvas 1074 274 1920 976 dry_wet 0;
#X obj 398 349 - 1;
#X floatatom 398 410 5 0 0 0 - - - 0;
#X obj 398 379 * -1;
#X floatatom 491 403 5 0 0 0 - - - 0;
#X obj 275 252 inlet~;
#X obj 351 250 inlet~;
#X obj 411 470 *~;
#X obj 490 472 *~;
#X obj 449 525 +~;
#X obj 449 549 outlet~;
#X obj 434 211 inlet;
#X obj 434 249 expr if ($f1 > 1 \, 1 \, $f1);
#X obj 434 273 expr if ($f1 < 0 \, 0 \, $f1);
#X text 344 223 WET INPUT;
#X text 261 223 DRY INPUT;
#X text 432 190 SLIDER;
#X connect 0 0 2 0;
#X connect 1 0 6 1;
#X connect 2 0 1 0;
#X connect 3 0 7 1;
#X connect 4 0 6 0;
#X connect 5 0 7 0;
#X connect 6 0 8 0;
#X connect 7 0 8 1;
#X connect 8 0 9 0;
#X connect 10 0 11 0;
#X connect 11 0 12 0;
#X connect 12 0 0 0;
#X connect 12 0 3 0;
#X restore 217 414 pd dry_wet;
#X obj 447 241 inlet;
#X connect 0 0 1 0;
#X connect 0 0 6 0;
#X connect 1 0 6 1;
#X connect 2 0 1 1;
#X connect 3 0 2 0;
#X connect 4 0 3 0;
#X connect 6 0 5 0;
#X connect 7 0 6 2;
#X restore 309 554 pd AM;
#X obj 1605 20 inlet;
#N canvas 951 1021 1920 976 delay 0;
#X obj 151 781 outlet~;
#X obj 831 156 inlet;
#X obj 707 130 inlet;
#X floatatom 256 564 5 0 0 0 - - - 0;
#X obj 254 655 *~;
#X obj 152 189 inlet~;
#X obj 707 154 / 10;
#X obj 469 424 *~ 0.75;
#X obj 246 332 delwrite~ audio-buffer-delay-right-1 5000;
#X obj 253 611 delread~ audio-buffer-delay-right-1;
#X connect 1 0 4 1;
#X connect 2 0 6 0;
#X connect 3 0 9 0;
#X connect 4 0 0 0;
#X connect 5 0 0 0;
#X connect 5 0 8 0;
#X connect 6 0 3 0;
#X connect 7 0 8 0;
#X connect 9 0 4 0;
#X connect 9 0 7 0;
#X restore 1574 545 pd delay;
#N canvas 1915 1021 1920 976 reverb 0;
#X obj 76 127 rev1~;
#X obj 75 66 inlet~;
#X obj 135 64 inlet;
#X obj 58 204 outlet~;
#N canvas 1074 274 1920 976 dry_wet 0;
#X obj 398 349 - 1;
#X floatatom 398 410 5 0 0 0 - - - 0;
#X obj 398 379 * -1;
#X floatatom 491 403 5 0 0 0 - - - 0;
#X obj 275 252 inlet~;
#X obj 351 250 inlet~;
#X obj 411 470 *~;
#X obj 490 472 *~;
#X obj 449 525 +~;
#X obj 449 549 outlet~;
#X obj 434 211 inlet;
#X obj 434 249 expr if ($f1 > 1 \, 1 \, $f1);
#X obj 434 273 expr if ($f1 < 0 \, 0 \, $f1);
#X text 344 223 WET INPUT;
#X text 261 223 DRY INPUT;
#X text 432 190 SLIDER;
#X connect 0 0 2 0;
#X connect 1 0 6 1;
#X connect 2 0 1 0;
#X connect 3 0 7 1;
#X connect 4 0 6 0;
#X connect 5 0 7 0;
#X connect 6 0 8 0;
#X connect 7 0 8 1;
#X connect 8 0 9 0;
#X connect 10 0 11 0;
#X connect 11 0 12 0;
#X connect 12 0 0 0;
#X connect 12 0 3 0;
#X restore 43 159 pd dry_wet;
#X connect 0 0 4 1;
#X connect 1 0 0 0;
#X connect 1 0 4 0;
#X connect 2 0 0 1;
#X connect 2 0 4 2;
#X connect 4 0 3 0;
#X restore 1663 544 pd reverb;
#N canvas 1916 0 1920 976 distortion 0;
#X obj 98 281 *~;
#X floatatom 140 255 5 0 0 0 - - - 0;
#X obj 98 397 clip~ -0.3 0.3;
#X obj 98 181 inlet~;
#X obj 172 162 inlet;
#X obj 163 204 * 100;
#X obj 68 507 outlet~;
#N canvas 1074 274 1920 976 dry_wet 0;
#X obj 398 349 - 1;
#X floatatom 398 410 5 0 0 0 - - - 0;
#X obj 398 379 * -1;
#X floatatom 491 403 5 0 0 0 - - - 0;
#X obj 275 252 inlet~;
#X obj 351 250 inlet~;
#X obj 411 470 *~;
#X obj 490 472 *~;
#X obj 449 525 +~;
#X obj 449 549 outlet~;
#X obj 434 211 inlet;
#X obj 434 249 expr if ($f1 > 1 \, 1 \, $f1);
#X obj 434 273 expr if ($f1 < 0 \, 0 \, $f1);
#X text 344 223 WET INPUT;
#X text 261 223 DRY INPUT;
#X text 432 190 SLIDER;
#X connect 0 0 2 0;
#X connect 1 0 6 1;
#X connect 2 0 1 0;
#X connect 3 0 7 1;
#X connect 4 0 6 0;
#X connect 5 0 7 0;
#X connect 6 0 8 0;
#X connect 7 0 8 1;
#X connect 8 0 9 0;
#X connect 10 0 11 0;
#X connect 11 0 12 0;
#X connect 12 0 0 0;
#X connect 12 0 3 0;
#X restore 69 448 pd dry_wet;
#X connect 0 0 2 0;
#X connect 1 0 0 1;
#X connect 2 0 7 1;
#X connect 3 0 0 0;
#X connect 3 0 7 0;
#X connect 4 0 5 0;
#X connect 4 0 7 2;
#X connect 5 0 1 0;
#X connect 7 0 6 0;
#X restore 1195 547 pd distortion;
#N canvas 1916 0 1920 976 chorus/flanger 0;
#X obj 448 251 expr~ $v1 * 2 - 1;
#X obj 1118 376 expr~ ($v1 + 1) /2;
#X obj 1121 477 +~ 5;
#X obj 447 187 inlet~;
#X obj 767 690 outlet~;
#X obj 1114 326 osc~ 2;
#X obj 1428 130 inlet;
#X floatatom 1428 166 5 0 0 0 - - - 0;
#X obj 1327 165 / 10000;
#X obj 1327 128 inlet;
#N canvas 1074 274 1920 976 dry_wet 0;
#X obj 398 349 - 1;
#X floatatom 398 410 5 0 0 0 - - - 0;
#X obj 398 379 * -1;
#X floatatom 491 403 5 0 0 0 - - - 0;
#X obj 275 252 inlet~;
#X obj 351 250 inlet~;
#X obj 411 470 *~;
#X obj 490 472 *~;
#X obj 449 525 +~;
#X obj 449 549 outlet~;
#X obj 434 211 inlet;
#X obj 434 249 expr if ($f1 > 1 \, 1 \, $f1);
#X obj 434 273 expr if ($f1 < 0 \, 0 \, $f1);
#X text 344 223 WET INPUT;
#X text 261 223 DRY INPUT;
#X text 432 190 SLIDER;
#X connect 0 0 2 0;
#X connect 1 0 6 1;
#X connect 2 0 1 0;
#X connect 3 0 7 1;
#X connect 4 0 6 0;
#X connect 5 0 7 0;
#X connect 6 0 8 0;
#X connect 7 0 8 1;
#X connect 8 0 9 0;
#X connect 10 0 11 0;
#X connect 11 0 12 0;
#X connect 12 0 0 0;
#X connect 12 0 3 0;
#X restore 768 642 pd dry_wet;
#X obj 1104 428 *~ 1;
#X obj 448 283 delwrite~ \$0-buffer-right-1 100;
#X obj 1117 524 delread4~ \$0-buffer-right-1;
#X obj 766 488 delread4~ \$0-buffer-right-1;
#X connect 0 0 12 0;
#X connect 1 0 11 0;
#X connect 2 0 13 0;
#X connect 3 0 0 0;
#X connect 3 0 10 0;
#X connect 5 0 1 0;
#X connect 6 0 7 0;
#X connect 7 0 10 2;
#X connect 8 0 5 0;
#X connect 9 0 8 0;
#X connect 10 0 4 0;
#X connect 11 0 2 0;
#X connect 13 0 10 1;
#X connect 14 0 10 1;
#X restore 1429 546 pd chorus/flanger;
#X obj 208 150 inlet~;
#X obj 1191 799 outlet~;
#N canvas -126 -28 1920 976 bitcrusher 0;
#X obj 244 229 expr~ round($v1 / $f2);
#X obj 397 124 inlet;
#X obj 244 143 inlet~;
#X obj 182 356 outlet~;
#X obj 243 267 *~;
#X obj 397 194 + 0.2;
#N canvas 1074 274 1920 976 dry_wet 0;
#X obj 398 349 - 1;
#X floatatom 398 410 5 0 0 0 - - - 0;
#X obj 398 379 * -1;
#X floatatom 491 403 5 0 0 0 - - - 0;
#X obj 275 252 inlet~;
#X obj 351 250 inlet~;
#X obj 411 470 *~;
#X obj 490 472 *~;
#X obj 449 525 +~;
#X obj 449 549 outlet~;
#X obj 434 211 inlet;
#X obj 434 249 expr if ($f1 > 1 \, 1 \, $f1);
#X obj 434 273 expr if ($f1 < 0 \, 0 \, $f1);
#X text 344 223 WET INPUT;
#X text 261 223 DRY INPUT;
#X text 432 190 SLIDER;
#X connect 0 0 2 0;
#X connect 1 0 6 1;
#X connect 2 0 1 0;
#X connect 3 0 7 1;
#X connect 4 0 6 0;
#X connect 5 0 7 0;
#X connect 6 0 8 0;
#X connect 7 0 8 1;
#X connect 8 0 9 0;
#X connect 10 0 11 0;
#X connect 11 0 12 0;
#X connect 12 0 0 0;
#X connect 12 0 3 0;
#X restore 181 308 pd dry_wet;
#X obj 397 148 / 20000;
#X obj 527 132 inlet;
#X floatatom 397 172 5 0 0 0 - - - 0;
#X connect 0 0 4 0;
#X connect 1 0 7 0;
#X connect 2 0 0 0;
#X connect 2 0 6 0;
#X connect 4 0 6 1;
#X connect 5 0 4 1;
#X connect 5 0 0 1;
#X connect 6 0 3 0;
#X connect 7 0 5 0;
#X connect 7 0 9 0;
#X connect 8 0 6 2;
#X restore 1308 543 pd bitcrusher;
#N canvas -40 43 1920 976 audio_router 0;
#X obj 1407 282 == 0;
#X obj 1461 281 == 1;
#X obj 1517 282 == 2;
#X obj 1572 284 == 3;
#X obj 760 505 *~;
#X obj 853 506 *~;
#X obj 947 503 *~;
#X obj 1032 498 *~;
#X obj 755 233 inlet~;
#X obj 1490 219 inlet;
#X obj 760 526 outlet~;
#X obj 853 527 outlet~;
#X obj 947 524 outlet~;
#X obj 1032 519 outlet~;
#X obj 1110 502 *~;
#X obj 1204 499 *~;
#X obj 1289 494 *~;
#X obj 1110 523 outlet~;
#X obj 1204 520 outlet~;
#X obj 1289 515 outlet~;
#X obj 1636 283 == 4;
#X obj 1692 284 == 5;
#X obj 1747 286 == 6;
#X obj 846 230 inlet~;
#X obj 940 227 inlet~;
#X obj 1026 226 inlet~;
#X obj 1110 228 inlet~;
#X obj 1204 225 inlet~;
#X obj 1290 224 inlet~;
#X connect 0 0 4 1;
#X connect 1 0 5 1;
#X connect 2 0 6 1;
#X connect 3 0 7 1;
#X connect 4 0 10 0;
#X connect 5 0 11 0;
#X connect 6 0 12 0;
#X connect 7 0 13 0;
#X connect 8 0 4 0;
#X connect 9 0 0 0;
#X connect 9 0 1 0;
#X connect 9 0 3 0;
#X connect 9 0 2 0;
#X connect 9 0 20 0;
#X connect 9 0 21 0;
#X connect 9 0 22 0;
#X connect 14 0 17 0;
#X connect 15 0 18 0;
#X connect 16 0 19 0;
#X connect 20 0 14 1;
#X connect 21 0 15 1;
#X connect 22 0 16 1;
#X connect 23 0 5 0;
#X connect 24 0 6 0;
#X connect 25 0 7 0;
#X connect 26 0 14 0;
#X connect 27 0 15 0;
#X connect 28 0 16 0;
#X restore 1115 675 pd audio_router;
#X f 17;
#N canvas 245 746 1920 976 AM 0;
#X obj 248 222 inlet~;
#X obj 249 310 *~;
#X obj 360 277 osc~;
#X floatatom 360 252 5 0 0 0 - - - 0;
#X obj 360 220 inlet;
#X obj 216 482 outlet~;
#N canvas 1074 274 1920 976 dry_wet 0;
#X obj 398 349 - 1;
#X floatatom 398 410 5 0 0 0 - - - 0;
#X obj 398 379 * -1;
#X floatatom 491 403 5 0 0 0 - - - 0;
#X obj 275 252 inlet~;
#X obj 351 250 inlet~;
#X obj 411 470 *~;
#X obj 490 472 *~;
#X obj 449 525 +~;
#X obj 449 549 outlet~;
#X obj 434 211 inlet;
#X obj 434 249 expr if ($f1 > 1 \, 1 \, $f1);
#X obj 434 273 expr if ($f1 < 0 \, 0 \, $f1);
#X text 344 223 WET INPUT;
#X text 261 223 DRY INPUT;
#X text 432 190 SLIDER;
#X connect 0 0 2 0;
#X connect 1 0 6 1;
#X connect 2 0 1 0;
#X connect 3 0 7 1;
#X connect 4 0 6 0;
#X connect 5 0 7 0;
#X connect 6 0 8 0;
#X connect 7 0 8 1;
#X connect 8 0 9 0;
#X connect 10 0 11 0;
#X connect 11 0 12 0;
#X connect 12 0 0 0;
#X connect 12 0 3 0;
#X restore 217 414 pd dry_wet;
#X obj 447 241 inlet;
#X connect 0 0 1 0;
#X connect 0 0 6 0;
#X connect 1 0 6 1;
#X connect 2 0 1 1;
#X connect 3 0 2 0;
#X connect 4 0 3 0;
#X connect 6 0 5 0;
#X connect 7 0 6 2;
#X restore 1109 547 pd AM;
#X connect 0 0 5 1;
#X connect 0 0 2 1;
#X connect 0 0 10 1;
#X connect 0 0 8 1;
#X connect 0 0 20 1;
#X connect 0 0 18 1;
#X connect 0 0 15 1;
#X connect 0 0 12 1;
#X connect 1 0 3 1;
#X connect 1 0 2 2;
#X connect 1 0 4 1;
#X connect 1 0 5 2;
#X connect 1 0 10 2;
#X connect 1 0 8 2;
#X connect 1 0 20 2;
#X connect 1 0 14 1;
#X connect 1 0 18 2;
#X connect 1 0 15 2;
#X connect 1 0 12 2;
#X connect 1 0 13 1;
#X connect 2 0 9 5;
#X connect 3 0 9 6;
#X connect 4 0 9 2;
#X connect 5 0 9 4;
#X connect 6 0 9 0;
#X connect 6 0 10 0;
#X connect 6 0 4 0;
#X connect 6 0 8 0;
#X connect 6 0 5 0;
#X connect 6 0 3 0;
#X connect 6 0 2 0;
#X connect 8 0 9 3;
#X connect 9 0 7 0;
#X connect 9 1 7 0;
#X connect 9 2 7 0;
#X connect 9 3 7 0;
#X connect 9 4 7 0;
#X connect 9 5 7 0;
#X connect 9 6 7 0;
#X connect 10 0 9 1;
#X connect 11 0 9 7;
#X connect 11 0 19 7;
#X connect 12 0 19 5;
#X connect 13 0 19 6;
#X connect 14 0 19 2;
#X connect 15 0 19 4;
#X connect 16 0 19 0;
#X connect 16 0 20 0;
#X connect 16 0 14 0;
#X connect 16 0 18 0;
#X connect 16 0 15 0;
#X connect 16 0 13 0;
#X connect 16 0 12 0;
#X connect 18 0 19 3;
#X connect 19 0 17 0;
#X connect 19 1 17 0;
#X connect 19 2 17 0;
#X connect 19 3 17 0;
#X connect 19 4 17 0;
#X connect 19 5 17 0;
#X connect 19 6 17 0;
#X connect 20 0 19 1;
#X restore 281 948 pd FX;
#X f 19;
#N canvas 58 1017 1920 976 Gain 0;
#X obj 408 166 *~;
#X obj 409 202 env~;
#X obj 409 235 - 90;
#X obj 477 167 *~;
#X obj 478 203 env~;
#X obj 478 236 - 90;
#X obj 408 91 inlet~;
#X obj 492 90 inlet~;
#X obj 546 86 inlet;
#X obj 409 259 outlet;
#X obj 478 260 outlet;
#X obj 248 260 outlet~;
#X obj 331 261 outlet~;
#X connect 0 0 1 0;
#X connect 0 0 11 0;
#X connect 1 0 2 0;
#X connect 2 0 9 0;
#X connect 3 0 4 0;
#X connect 3 0 12 0;
#X connect 4 0 5 0;
#X connect 5 0 10 0;
#X connect 6 0 0 0;
#X connect 7 0 3 0;
#X connect 8 0 3 1;
#X connect 8 0 0 1;
#X restore 281 877 pd Gain + dbMeter;
#X obj 947 129 vu 40 320 empty dB_METER -1 -8 0 10 #404040 #000000 1 0;
#N canvas 773 161 1080 633 EQs 0;
#N canvas -56 23 1920 976 mid 0;
#X obj 583 189 inlet~;
#X obj 581 601 outlet~;
#X obj 735 474 *~;
#X obj 582 513 -~;
#X obj 681 357 vcf~ 0.5;
#X obj 951 187 inlet;
#X msg 707 292 800;
#X obj 707 217 loadbang;
#X obj 753 368 / -15;
#X floatatom 753 427 5 0 0 0 - - - 0;
#X connect 0 0 3 0;
#X connect 0 0 4 0;
#X connect 2 0 3 1;
#X connect 3 0 1 0;
#X connect 4 0 2 0;
#X connect 5 0 8 0;
#X connect 6 0 4 1;
#X connect 7 0 6 0;
#X connect 8 0 9 0;
#X connect 9 0 2 1;
#X restore 431 225 pd mid EQ;
#N canvas 1915 1021 1920 976 low 0;
#X obj 613 217 inlet~;
#X obj 609 613 outlet~;
#X obj 907 192 inlet;
#X obj 753 368 / -15;
#X floatatom 753 427 5 0 0 0 - - - 0;
#X obj 661 506 *~;
#X obj 614 576 -~;
#X obj 660 440 lop~ 400;
#X connect 0 0 7 0;
#X connect 0 0 6 0;
#X connect 2 0 3 0;
#X connect 3 0 4 0;
#X connect 4 0 5 1;
#X connect 5 0 6 1;
#X connect 6 0 1 0;
#X connect 7 0 5 0;
#X restore 431 189 pd low EQ;
#N canvas -9 -9 1920 976 high 0;
#X obj 613 217 inlet~;
#X obj 609 613 outlet~;
#X obj 880 224 inlet;
#X obj 753 368 / -15;
#X floatatom 753 427 5 0 0 0 - - - 0;
#X obj 661 506 *~;
#X obj 614 576 -~;
#X obj 660 440 hip~ 2500;
#X connect 0 0 6 0;
#X connect 0 0 7 0;
#X connect 2 0 3 0;
#X connect 3 0 4 0;
#X connect 4 0 5 1;
#X connect 5 0 6 1;
#X connect 6 0 1 0;
#X connect 7 0 5 0;
#X restore 432 262 pd high EQ;
#X obj 432 137 inlet~;
#X obj 621 120 inlet;
#X obj 688 119 inlet;
#X obj 745 119 inlet;
#X obj 432 286 outlet~;
#N canvas -472 83 1920 976 mid 0;
#X obj 583 189 inlet~;
#X obj 581 601 outlet~;
#X obj 735 474 *~;
#X obj 582 513 -~;
#X obj 681 357 vcf~ 0.5;
#X obj 951 187 inlet;
#X msg 707 292 800;
#X obj 707 217 loadbang;
#X obj 753 368 / -15;
#X floatatom 753 427 5 0 0 0 - - - 0;
#X connect 0 0 3 0;
#X connect 0 0 4 0;
#X connect 2 0 3 1;
#X connect 3 0 1 0;
#X connect 4 0 2 0;
#X connect 5 0 8 0;
#X connect 6 0 4 1;
#X connect 7 0 6 0;
#X connect 8 0 9 0;
#X connect 9 0 2 1;
#X restore 535 223 pd mid EQ;
#N canvas 1915 1021 1920 976 low 0;
#X obj 613 217 inlet~;
#X obj 609 613 outlet~;
#X obj 907 192 inlet;
#X obj 753 368 / -15;
#X floatatom 753 427 5 0 0 0 - - - 0;
#X obj 661 506 *~;
#X obj 614 576 -~;
#X obj 660 440 lop~ 400;
#X connect 0 0 7 0;
#X connect 0 0 6 0;
#X connect 2 0 3 0;
#X connect 3 0 4 0;
#X connect 4 0 5 1;
#X connect 5 0 6 1;
#X connect 6 0 1 0;
#X connect 7 0 5 0;
#X restore 535 187 pd low EQ;
#N canvas -9 -9 1920 976 high 0;
#X obj 613 217 inlet~;
#X obj 609 613 outlet~;
#X obj 880 224 inlet;
#X obj 753 368 / -15;
#X floatatom 753 427 5 0 0 0 - - - 0;
#X obj 661 506 *~;
#X obj 614 576 -~;
#X obj 660 440 hip~ 2500;
#X connect 0 0 6 0;
#X connect 0 0 7 0;
#X connect 2 0 3 0;
#X connect 3 0 4 0;
#X connect 4 0 5 1;
#X connect 5 0 6 1;
#X connect 6 0 1 0;
#X connect 7 0 5 0;
#X restore 536 260 pd high EQ;
#X obj 536 284 outlet~;
#X obj 536 141 inlet~;
#X connect 0 0 2 0;
#X connect 1 0 0 0;
#X connect 2 0 7 0;
#X connect 3 0 1 0;
#X connect 4 0 1 1;
#X connect 4 0 9 1;
#X connect 5 0 0 1;
#X connect 5 0 8 1;
#X connect 6 0 2 1;
#X connect 6 0 10 1;
#X connect 8 0 10 0;
#X connect 9 0 8 0;
#X connect 10 0 11 0;
#X connect 12 0 9 0;
#X restore 281 918 pd EQs;
#X f 10;
#X floatatom 646 770 5 0 0 0 - - - 0;
#X obj 646 545 vradio 30 1 0 7 empty empty FX\ Selector 0 -10 0 12 #9c00ff #000000 #000000 0;
#X text 692 581 1 Amplitude Modulation;
#X text 693 611 2 Distortion;
#X text 693 641 3 Bitcrusher;
#X text 693 670 4 Chorus/flanger;
#X text 693 700 5 Delay;
#X text 692 733 7 Reverb;
#X text 692 549 0 No effect;
#N canvas -584 498 1920 976 CUE 0;
#X obj 330 349 *~;
#X msg 323 304 0;
#X msg 370 305 1;
#X obj 330 258 select 0 1;
#X obj 323 285 bng 15 250 50 0 empty empty empty 17 7 0 10 #fcfcfc #000000 #000000;
#X obj 370 285 bng 15 250 50 0 empty empty empty 17 7 0 10 #fcfcfc #000000 #000000;
#X obj 552 187 inlet;
#X obj 329 386 outlet~;
#X obj 274 187 inlet~;
#X obj 490 349 *~;
#X msg 483 304 0;
#X msg 530 305 1;
#X obj 490 258 select 0 1;
#X obj 483 285 bng 15 250 50 0 empty empty empty 17 7 0 10 #fcfcfc #000000 #000000;
#X obj 530 285 bng 15 250 50 0 empty empty empty 17 7 0 10 #fcfcfc #000000 #000000;
#X obj 489 386 outlet~;
#X obj 434 187 inlet~;
#X connect 0 0 7 0;
#X connect 1 0 0 1;
#X connect 2 0 0 1;
#X connect 3 0 4 0;
#X connect 3 1 5 0;
#X connect 4 0 1 0;
#X connect 5 0 2 0;
#X connect 6 0 3 0;
#X connect 6 0 12 0;
#X connect 8 0 0 0;
#X connect 9 0 15 0;
#X connect 10 0 9 1;
#X connect 11 0 9 1;
#X connect 12 0 13 0;
#X connect 12 1 14 0;
#X connect 13 0 10 0;
#X connect 14 0 11 0;
#X connect 16 0 9 0;
#X restore 563 597 pd CUE;
#N canvas 233 342 958 966 summing 0;
#X obj 427 357 *~;
#X obj 428 386 *~;
#X obj 519 355 *~;
#X obj 520 384 *~;
#X obj 486 445 +~;
#X obj 578 445 +~;
#X obj 485 586 outlet~;
#X obj 577 586 outlet~;
#X obj 428 289 inlet~;
#X obj 518 288 inlet~;
#X obj 594 289 inlet~;
#X obj 654 291 inlet~;
#X obj 773 285 inlet;
#X obj 921 281 inlet;
#X obj 594 349 *~;
#X obj 595 378 *~;
#X obj 654 351 *~;
#X obj 655 380 *~;
#X obj 842 283 inlet;
#X obj 486 508 *~;
#X obj 578 508 *~;
#X obj 1002 281 inlet;
#X obj 486 545 clip~ -1 1;
#X obj 578 544 clip~ -1 1;
#X floatatom 773 309 5 0 0 0 - - - 0;
#X obj 846 455 -;
#X obj 846 403 loadbang;
#X msg 846 427 1;
#X obj 921 412 t b f;
#X connect 0 0 1 0;
#X connect 1 0 4 0;
#X connect 2 0 3 0;
#X connect 3 0 5 0;
#X connect 4 0 19 0;
#X connect 5 0 20 0;
#X connect 8 0 0 0;
#X connect 9 0 2 0;
#X connect 10 0 14 0;
#X connect 11 0 16 0;
#X connect 12 0 0 1;
#X connect 12 0 2 1;
#X connect 12 0 24 0;
#X connect 13 0 3 1;
#X connect 13 0 1 1;
#X connect 13 0 28 0;
#X connect 14 0 15 0;
#X connect 15 0 4 1;
#X connect 16 0 17 0;
#X connect 17 0 5 1;
#X connect 18 0 14 1;
#X connect 18 0 16 1;
#X connect 19 0 22 0;
#X connect 20 0 23 0;
#X connect 21 0 20 1;
#X connect 21 0 19 1;
#X connect 22 0 6 0;
#X connect 23 0 7 0;
#X connect 25 0 15 1;
#X connect 25 0 17 1;
#X connect 26 0 27 0;
#X connect 27 0 25 0;
#X connect 28 0 25 0;
#X connect 28 1 25 1;
#X restore 920 1201 pd summing;
#X f 26;
#N canvas 1916 0 1920 976 feedback 0;
#X obj 37 37 inlet~;
#X obj 142 288 *~;
#X obj 102 384 outlet~;
#X obj 446 28 inlet~;
#X obj 551 279 *~;
#X obj 511 375 outlet~;
#X obj 811 36 inlet;
#X obj 97 183 delwrite~ buffer-feedback-left-1 1000;
#X obj 142 240 delread~ buffer-feedback-left-1 10;
#X obj 506 174 delwrite~ buffer-feedback-right-1 1000;
#X obj 551 231 delread~ buffer-feedback-right-1 10;
#N canvas 1074 274 1920 976 dry_wet 0;
#X obj 398 349 - 1;
#X floatatom 398 410 5 0 0 0 - - - 0;
#X obj 398 379 * -1;
#X floatatom 491 403 5 0 0 0 - - - 0;
#X obj 275 252 inlet~;
#X obj 351 250 inlet~;
#X obj 411 470 *~;
#X obj 490 472 *~;
#X obj 449 525 +~;
#X obj 449 549 outlet~;
#X obj 434 211 inlet;
#X obj 434 249 expr if ($f1 > 1 \, 1 \, $f1);
#X obj 434 273 expr if ($f1 < 0 \, 0 \, $f1);
#X text 344 223 WET INPUT;
#X text 261 223 DRY INPUT;
#X text 432 190 SLIDER;
#X connect 0 0 2 0;
#X connect 1 0 6 1;
#X connect 2 0 1 0;
#X connect 3 0 7 1;
#X connect 4 0 6 0;
#X connect 5 0 7 0;
#X connect 6 0 8 0;
#X connect 7 0 8 1;
#X connect 8 0 9 0;
#X connect 10 0 11 0;
#X connect 11 0 12 0;
#X connect 12 0 0 0;
#X connect 12 0 3 0;
#X restore 101 344 pd dry_wet;
#N canvas 1074 274 1920 976 dry_wet 0;
#X obj 398 349 - 1;
#X floatatom 398 410 5 0 0 0 - - - 0;
#X obj 398 379 * -1;
#X floatatom 491 403 5 0 0 0 - - - 0;
#X obj 275 252 inlet~;
#X obj 351 250 inlet~;
#X obj 411 470 *~;
#X obj 490 472 *~;
#X obj 449 525 +~;
#X obj 449 549 outlet~;
#X obj 434 211 inlet;
#X obj 434 249 expr if ($f1 > 1 \, 1 \, $f1);
#X obj 434 273 expr if ($f1 < 0 \, 0 \, $f1);
#X text 344 223 WET INPUT;
#X text 261 223 DRY INPUT;
#X text 432 190 SLIDER;
#X connect 0 0 2 0;
#X connect 1 0 6 1;
#X connect 2 0 1 0;
#X connect 3 0 7 1;
#X connect 4 0 6 0;
#X connect 5 0 7 0;
#X connect 6 0 8 0;
#X connect 7 0 8 1;
#X connect 8 0 9 0;
#X connect 10 0 11 0;
#X connect 11 0 12 0;
#X connect 12 0 0 0;
#X connect 12 0 3 0;
#X restore 510 342 pd dry_wet;
#X connect 0 0 7 0;
#X connect 0 0 11 0;
#X connect 1 0 7 0;
#X connect 1 0 11 1;
#X connect 3 0 9 0;
#X connect 3 0 12 0;
#X connect 4 0 9 0;
#X connect 4 0 12 1;
#X connect 6 0 4 1;
#X connect 6 0 1 1;
#X connect 6 0 11 2;
#X connect 6 0 12 2;
#X connect 8 0 1 0;
#X connect 10 0 4 0;
#X connect 11 0 2 0;
#X connect 12 0 5 0;
#X restore 280 1030 pd feedback;
#X obj 992 1248 dac~;
#X obj 563 621 dac~ 3 4;
#X obj 1537 89 vsl 45 420 0 1 0 0 empty empty CHANNEL_2 0 -9 0 10 #00f8fc #000000 #000000 0 1;
#X obj 1901 -298 loadbang;
#X floatatom 1276 195 5 -15 15 0 - - - 0;
#X obj 1337 194 hsl 150 20 -15 15 0 0 empty empty MID -2 -8 0 10 #fc0400 #000000 #000000 0 1;
#X msg 1980 -300 0;
#X obj 1506 195 bng 20 250 50 0 empty empty empty 17 7 0 10 #9c9c9c #000000 #000000;
#X floatatom 1276 149 5 -15 15 0 - - - 0;
#X obj 1337 148 hsl 150 20 -15 15 0 0 empty empty LOW -2 -8 0 10 #fc0400 #000000 #000000 0 1;
#X obj 1506 149 bng 20 250 50 0 empty empty empty 17 7 0 10 #9c9c9c #000000 #000000;
#X msg 2018 -299 0;
#X floatatom 1275 240 5 -15 15 0 - - - 0;
#X obj 1336 239 hsl 150 20 -15 15 0 0 empty empty HIGH -2 -8 0 10 #fc0400 #000000 #000000 0 1;
#X obj 1505 240 bng 20 250 50 0 empty empty empty 17 7 0 10 #9c9c9c #000000 #000000;
#X msg 2058 -298 0;
#X obj 1352 97 hsl 127 15 0 2 0 0 empty empty GAIN -2 -8 0 10 #7c7c7c #000000 #000000 0 1;
#X obj 1114 129 vu 40 320 empty dB_METER -1 -8 0 10 #404040 #000000 1 0;
#X floatatom 1286 96 5 0 35 0 - - - 0;
#X obj 1542 542 tgl 45 0 empty empty CUE 10 -7 0 15 #fc8000 #000000 #000000 0 1;
#X obj 1335 290 hsl 155 25 -20000 20000 0 0 empty empty LOWPASS-HIPASS_FILTER -2 -8 0 10 #cc3060 #000000 #000000 0 1;
#N canvas 1915 1021 1920 976 lowpass-hipass 0;
#X obj 627 185 inlet~;
#X obj 689 413 outlet~;
#X obj 948 197 inlet;
#N canvas 1073 127 450 300 left 0;
#X obj 188 18 inlet~;
#X obj 617 661 outlet~;
#X obj 451 338 < 0;
#X floatatom 570 85 7 -20000 20000 0 - - - 0;
#X msg 427 432 0;
#X msg 474 433 1;
#X obj 434 386 select 0 1;
#X obj 427 413 bng 15 250 50 0 empty empty empty 17 7 0 10 #fcfcfc #000000 #000000;
#X obj 474 413 bng 15 250 50 0 empty empty empty 17 7 0 10 #fcfcfc #000000 #000000;
#X obj 408 503 *~;
#X obj 389 388 lop~;
#X obj 339 277 + 20000;
#X floatatom 379 327 5 0 0 0 - - - 0;
#X obj 621 370 == 0;
#X obj 615 490 *~;
#X msg 821 421 0;
#X msg 868 422 1;
#X obj 828 375 select 0 1;
#X obj 821 402 bng 15 250 50 0 empty empty empty 17 7 0 10 #fcfcfc #000000 #000000;
#X obj 868 402 bng 15 250 50 0 empty empty empty 17 7 0 10 #fcfcfc #000000 #000000;
#X obj 802 492 *~;
#X floatatom 773 316 5 0 0 0 - - - 0;
#X obj 845 327 > 0;
#X obj 783 377 hip~;
#X obj 570 17 inlet;
#X connect 0 0 10 0;
#X connect 0 0 14 0;
#X connect 0 0 23 0;
#X connect 2 0 6 0;
#X connect 3 0 2 0;
#X connect 3 0 11 0;
#X connect 3 0 13 0;
#X connect 3 0 22 0;
#X connect 3 0 21 0;
#X connect 4 0 9 1;
#X connect 5 0 9 1;
#X connect 6 0 7 0;
#X connect 6 1 8 0;
#X connect 7 0 4 0;
#X connect 8 0 5 0;
#X connect 9 0 1 0;
#X connect 10 0 9 0;
#X connect 11 0 12 0;
#X connect 12 0 10 1;
#X connect 13 0 14 1;
#X connect 14 0 1 0;
#X connect 15 0 20 1;
#X connect 16 0 20 1;
#X connect 17 0 18 0;
#X connect 17 1 19 0;
#X connect 18 0 15 0;
#X connect 19 0 16 0;
#X connect 20 0 1 0;
#X connect 21 0 23 1;
#X connect 22 0 17 0;
#X connect 23 0 20 0;
#X connect 24 0 3 0;
#X restore 689 375 pd left;
#N canvas 1073 127 450 300 right 0;
#X obj 188 18 inlet~;
#X obj 617 661 outlet~;
#X obj 451 338 < 0;
#X floatatom 570 85 7 -20000 20000 0 - - - 0;
#X msg 427 432 0;
#X msg 474 433 1;
#X obj 434 386 select 0 1;
#X obj 427 413 bng 15 250 50 0 empty empty empty 17 7 0 10 #fcfcfc #000000 #000000;
#X obj 474 413 bng 15 250 50 0 empty empty empty 17 7 0 10 #fcfcfc #000000 #000000;
#X obj 408 503 *~;
#X obj 389 388 lop~;
#X obj 339 277 + 20000;
#X floatatom 379 327 5 0 0 0 - - - 0;
#X obj 621 370 == 0;
#X obj 615 490 *~;
#X msg 821 421 0;
#X msg 868 422 1;
#X obj 828 375 select 0 1;
#X obj 821 402 bng 15 250 50 0 empty empty empty 17 7 0 10 #fcfcfc #000000 #000000;
#X obj 868 402 bng 15 250 50 0 empty empty empty 17 7 0 10 #fcfcfc #000000 #000000;
#X obj 802 492 *~;
#X floatatom 773 316 5 0 0 0 - - - 0;
#X obj 845 327 > 0;
#X obj 783 377 hip~;
#X obj 570 17 inlet;
#X connect 0 0 10 0;
#X connect 0 0 14 0;
#X connect 0 0 23 0;
#X connect 2 0 6 0;
#X connect 3 0 2 0;
#X connect 3 0 11 0;
#X connect 3 0 13 0;
#X connect 3 0 22 0;
#X connect 3 0 21 0;
#X connect 4 0 9 1;
#X connect 5 0 9 1;
#X connect 6 0 7 0;
#X connect 6 1 8 0;
#X connect 7 0 4 0;
#X connect 8 0 5 0;
#X connect 9 0 1 0;
#X connect 10 0 9 0;
#X connect 11 0 12 0;
#X connect 12 0 10 1;
#X connect 13 0 14 1;
#X connect 14 0 1 0;
#X connect 15 0 20 1;
#X connect 16 0 20 1;
#X connect 17 0 18 0;
#X connect 17 1 19 0;
#X connect 18 0 15 0;
#X connect 19 0 16 0;
#X connect 20 0 1 0;
#X connect 21 0 23 1;
#X connect 22 0 17 0;
#X connect 23 0 20 0;
#X connect 24 0 3 0;
#X restore 901 381 pd right;
#X obj 901 405 outlet~;
#X obj 746 190 inlet~;
#X connect 0 0 3 0;
#X connect 2 0 3 1;
#X connect 2 0 4 1;
#X connect 3 0 1 0;
#X connect 4 0 5 0;
#X connect 6 0 4 0;
#X restore 1397 985 pd lowpass-hipass filter;
#X msg 2136 -298 0;
#X obj 1500 289 bng 25 250 50 0 empty empty empty 17 7 0 10 #9c9c9c #000000 #000000;
#X obj 1337 350 hsl 155 25 0 1 0 0 empty empty FX_AMOUNT -2 -8 0 10 #9c00fc #000000 #000000 0 1;
#X obj 1501 351 bng 25 250 50 0 empty empty empty 17 7 0 10 #9c9c9c #000000 #000000;
#X msg 2175 -299 0;
#X obj 1906 -274 * 100;
#X floatatom 1280 355 5 0 0 0 - - - 0;
#X obj 1337 400 hsl 155 25 0 1 0 0 empty empty FEEDBACK -2 -8 0 10 #e0c4fc #000000 #000000 0 1;
#X obj 1501 400 bng 25 250 50 0 empty empty empty 17 7 0 10 #9c9c9c #000000 #000000;
#X floatatom 1280 405 5 0 0 0 - - - 0;
#X msg 2209 -298 0;
#X obj 1337 448 hsl 155 25 20 20000 1 0 empty empty FX_FREQUENCY/INTENSITY -2 -8 0 10 #c4c4fc #000000 #000000 0 1;
#X obj 1501 449 bng 25 250 50 0 empty empty empty 17 7 0 10 #9c9c9c #000000 #000000;
#X floatatom 1280 453 6 0 0 0 - - - 0;
#X msg 2243 -298 0;
#N canvas 1916 0 1920 976 FX 0;
#X obj 393 21 inlet;
#X obj 1051 28 inlet;
#N canvas 951 1021 1920 976 delay 0;
#X obj 151 781 outlet~;
#X obj 831 156 inlet;
#X obj 707 130 inlet;
#X floatatom 256 564 5 0 0 0 - - - 0;
#X obj 254 655 *~;
#X obj 152 189 inlet~;
#X obj 707 154 / 10;
#X obj 469 424 *~ 0.75;
#X obj 246 332 delwrite~ audio-buffer-delay-left-2 5000;
#X obj 253 611 delread~ audio-buffer-delay-left-2;
#X connect 1 0 4 1;
#X connect 2 0 6 0;
#X connect 3 0 9 0;
#X connect 4 0 0 0;
#X connect 5 0 0 0;
#X connect 5 0 8 0;
#X connect 6 0 3 0;
#X connect 7 0 8 0;
#X connect 9 0 4 0;
#X connect 9 0 7 0;
#X restore 774 552 pd delay;
#N canvas 1915 1021 1920 976 reverb 0;
#X obj 76 127 rev1~;
#X obj 75 66 inlet~;
#X obj 135 64 inlet;
#X obj 58 204 outlet~;
#N canvas 1074 274 1920 976 dry_wet 0;
#X obj 398 349 - 1;
#X floatatom 398 410 5 0 0 0 - - - 0;
#X obj 398 379 * -1;
#X floatatom 491 403 5 0 0 0 - - - 0;
#X obj 275 252 inlet~;
#X obj 351 250 inlet~;
#X obj 411 470 *~;
#X obj 490 472 *~;
#X obj 449 525 +~;
#X obj 449 549 outlet~;
#X obj 434 211 inlet;
#X obj 434 249 expr if ($f1 > 1 \, 1 \, $f1);
#X obj 434 273 expr if ($f1 < 0 \, 0 \, $f1);
#X text 344 223 WET INPUT;
#X text 261 223 DRY INPUT;
#X text 432 190 SLIDER;
#X connect 0 0 2 0;
#X connect 1 0 6 1;
#X connect 2 0 1 0;
#X connect 3 0 7 1;
#X connect 4 0 6 0;
#X connect 5 0 7 0;
#X connect 6 0 8 0;
#X connect 7 0 8 1;
#X connect 8 0 9 0;
#X connect 10 0 11 0;
#X connect 11 0 12 0;
#X connect 12 0 0 0;
#X connect 12 0 3 0;
#X restore 43 159 pd dry_wet;
#X connect 0 0 4 1;
#X connect 1 0 0 0;
#X connect 1 0 4 0;
#X connect 2 0 0 1;
#X connect 2 0 4 2;
#X connect 4 0 3 0;
#X restore 863 551 pd reverb;
#N canvas 1916 0 1920 976 distortion 0;
#X obj 98 281 *~;
#X floatatom 140 255 5 0 0 0 - - - 0;
#X obj 98 397 clip~ -0.3 0.3;
#X obj 98 181 inlet~;
#X obj 172 162 inlet;
#X obj 163 204 * 100;
#X obj 68 507 outlet~;
#N canvas 1074 274 1920 976 dry_wet 0;
#X obj 398 349 - 1;
#X floatatom 398 410 5 0 0 0 - - - 0;
#X obj 398 379 * -1;
#X floatatom 491 403 5 0 0 0 - - - 0;
#X obj 275 252 inlet~;
#X obj 351 250 inlet~;
#X obj 411 470 *~;
#X obj 490 472 *~;
#X obj 449 525 +~;
#X obj 449 549 outlet~;
#X obj 434 211 inlet;
#X obj 434 249 expr if ($f1 > 1 \, 1 \, $f1);
#X obj 434 273 expr if ($f1 < 0 \, 0 \, $f1);
#X text 344 223 WET INPUT;
#X text 261 223 DRY INPUT;
#X text 432 190 SLIDER;
#X connect 0 0 2 0;
#X connect 1 0 6 1;
#X connect 2 0 1 0;
#X connect 3 0 7 1;
#X connect 4 0 6 0;
#X connect 5 0 7 0;
#X connect 6 0 8 0;
#X connect 7 0 8 1;
#X connect 8 0 9 0;
#X connect 10 0 11 0;
#X connect 11 0 12 0;
#X connect 12 0 0 0;
#X connect 12 0 3 0;
#X restore 69 448 pd dry_wet;
#X connect 0 0 2 0;
#X connect 1 0 0 1;
#X connect 2 0 7 1;
#X connect 3 0 0 0;
#X connect 3 0 7 0;
#X connect 4 0 5 0;
#X connect 4 0 7 2;
#X connect 5 0 1 0;
#X connect 7 0 6 0;
#X restore 395 554 pd distortion;
#N canvas 1573 769 1920 976 chorus/flanger 0;
#X obj 448 251 expr~ $v1 * 2 - 1;
#X obj 1118 376 expr~ ($v1 + 1) /2;
#X obj 1121 477 +~ 5;
#X obj 447 187 inlet~;
#X obj 767 690 outlet~;
#X obj 1114 326 osc~ 2;
#X obj 1428 130 inlet;
#X floatatom 1428 166 5 0 0 0 - - - 0;
#X obj 1327 165 / 10000;
#X obj 1327 128 inlet;
#N canvas 1074 274 1920 976 dry_wet 0;
#X obj 398 349 - 1;
#X floatatom 398 410 5 0 0 0 - - - 0;
#X obj 398 379 * -1;
#X floatatom 491 403 5 0 0 0 - - - 0;
#X obj 275 252 inlet~;
#X obj 351 250 inlet~;
#X obj 411 470 *~;
#X obj 490 472 *~;
#X obj 449 525 +~;
#X obj 449 549 outlet~;
#X obj 434 211 inlet;
#X obj 434 249 expr if ($f1 > 1 \, 1 \, $f1);
#X obj 434 273 expr if ($f1 < 0 \, 0 \, $f1);
#X text 344 223 WET INPUT;
#X text 261 223 DRY INPUT;
#X text 432 190 SLIDER;
#X connect 0 0 2 0;
#X connect 1 0 6 1;
#X connect 2 0 1 0;
#X connect 3 0 7 1;
#X connect 4 0 6 0;
#X connect 5 0 7 0;
#X connect 6 0 8 0;
#X connect 7 0 8 1;
#X connect 8 0 9 0;
#X connect 10 0 11 0;
#X connect 11 0 12 0;
#X connect 12 0 0 0;
#X connect 12 0 3 0;
#X restore 768 642 pd dry_wet;
#X obj 1104 428 *~ 1;
#X obj 448 283 delwrite~ \$0-buffer-left-2 100;
#X obj 1117 524 delread4~ \$0-buffer-left-2;
#X obj 766 488 delread4~ \$0-buffer-left-2;
#X connect 0 0 12 0;
#X connect 1 0 11 0;
#X connect 2 0 13 0;
#X connect 3 0 0 0;
#X connect 3 0 10 0;
#X connect 5 0 1 0;
#X connect 6 0 7 0;
#X connect 7 0 10 2;
#X connect 8 0 5 0;
#X connect 9 0 8 0;
#X connect 10 0 4 0;
#X connect 11 0 2 0;
#X connect 13 0 10 1;
#X connect 14 0 10 1;
#X restore 629 553 pd chorus/flanger;
#X obj 125 160 inlet~;
#X obj 391 806 outlet~;
#N canvas -126 -28 1920 976 bitcrusher 0;
#X obj 244 229 expr~ round($v1 / $f2);
#X obj 397 124 inlet;
#X obj 244 143 inlet~;
#X obj 182 356 outlet~;
#X obj 243 267 *~;
#X obj 397 194 + 0.2;
#N canvas 1074 274 1920 976 dry_wet 0;
#X obj 398 349 - 1;
#X floatatom 398 410 5 0 0 0 - - - 0;
#X obj 398 379 * -1;
#X floatatom 491 403 5 0 0 0 - - - 0;
#X obj 275 252 inlet~;
#X obj 351 250 inlet~;
#X obj 411 470 *~;
#X obj 490 472 *~;
#X obj 449 525 +~;
#X obj 449 549 outlet~;
#X obj 434 211 inlet;
#X obj 434 249 expr if ($f1 > 1 \, 1 \, $f1);
#X obj 434 273 expr if ($f1 < 0 \, 0 \, $f1);
#X text 344 223 WET INPUT;
#X text 261 223 DRY INPUT;
#X text 432 190 SLIDER;
#X connect 0 0 2 0;
#X connect 1 0 6 1;
#X connect 2 0 1 0;
#X connect 3 0 7 1;
#X connect 4 0 6 0;
#X connect 5 0 7 0;
#X connect 6 0 8 0;
#X connect 7 0 8 1;
#X connect 8 0 9 0;
#X connect 10 0 11 0;
#X connect 11 0 12 0;
#X connect 12 0 0 0;
#X connect 12 0 3 0;
#X restore 181 308 pd dry_wet;
#X obj 397 148 / 20000;
#X obj 527 132 inlet;
#X floatatom 397 172 5 0 0 0 - - - 0;
#X connect 0 0 4 0;
#X connect 1 0 7 0;
#X connect 2 0 0 0;
#X connect 2 0 6 0;
#X connect 4 0 6 1;
#X connect 5 0 4 1;
#X connect 5 0 0 1;
#X connect 6 0 3 0;
#X connect 7 0 5 0;
#X connect 7 0 9 0;
#X connect 8 0 6 2;
#X restore 508 550 pd bitcrusher;
#N canvas -40 43 1920 976 audio_router 0;
#X obj 1407 282 == 0;
#X obj 1461 281 == 1;
#X obj 1517 282 == 2;
#X obj 1572 284 == 3;
#X obj 760 505 *~;
#X obj 853 506 *~;
#X obj 947 503 *~;
#X obj 1032 498 *~;
#X obj 755 233 inlet~;
#X obj 1490 219 inlet;
#X obj 760 526 outlet~;
#X obj 853 527 outlet~;
#X obj 947 524 outlet~;
#X obj 1032 519 outlet~;
#X obj 1110 502 *~;
#X obj 1204 499 *~;
#X obj 1289 494 *~;
#X obj 1110 523 outlet~;
#X obj 1204 520 outlet~;
#X obj 1289 515 outlet~;
#X obj 1636 283 == 4;
#X obj 1692 284 == 5;
#X obj 1747 286 == 6;
#X obj 846 230 inlet~;
#X obj 940 227 inlet~;
#X obj 1026 226 inlet~;
#X obj 1110 228 inlet~;
#X obj 1204 225 inlet~;
#X obj 1290 224 inlet~;
#X connect 0 0 4 1;
#X connect 1 0 5 1;
#X connect 2 0 6 1;
#X connect 3 0 7 1;
#X connect 4 0 10 0;
#X connect 5 0 11 0;
#X connect 6 0 12 0;
#X connect 7 0 13 0;
#X connect 8 0 4 0;
#X connect 9 0 0 0;
#X connect 9 0 1 0;
#X connect 9 0 3 0;
#X connect 9 0 2 0;
#X connect 9 0 20 0;
#X connect 9 0 21 0;
#X connect 9 0 22 0;
#X connect 14 0 17 0;
#X connect 15 0 18 0;
#X connect 16 0 19 0;
#X connect 20 0 14 1;
#X connect 21 0 15 1;
#X connect 22 0 16 1;
#X connect 23 0 5 0;
#X connect 24 0 6 0;
#X connect 25 0 7 0;
#X connect 26 0 14 0;
#X connect 27 0 15 0;
#X connect 28 0 16 0;
#X restore 315 682 pd audio_router;
#X f 17;
#N canvas 245 746 1920 976 AM 0;
#X obj 248 222 inlet~;
#X obj 249 310 *~;
#X obj 360 277 osc~;
#X floatatom 360 252 5 0 0 0 - - - 0;
#X obj 360 220 inlet;
#X obj 216 482 outlet~;
#N canvas 1074 274 1920 976 dry_wet 0;
#X obj 398 349 - 1;
#X floatatom 398 410 5 0 0 0 - - - 0;
#X obj 398 379 * -1;
#X floatatom 491 403 5 0 0 0 - - - 0;
#X obj 275 252 inlet~;
#X obj 351 250 inlet~;
#X obj 411 470 *~;
#X obj 490 472 *~;
#X obj 449 525 +~;
#X obj 449 549 outlet~;
#X obj 434 211 inlet;
#X obj 434 249 expr if ($f1 > 1 \, 1 \, $f1);
#X obj 434 273 expr if ($f1 < 0 \, 0 \, $f1);
#X text 344 223 WET INPUT;
#X text 261 223 DRY INPUT;
#X text 432 190 SLIDER;
#X connect 0 0 2 0;
#X connect 1 0 6 1;
#X connect 2 0 1 0;
#X connect 3 0 7 1;
#X connect 4 0 6 0;
#X connect 5 0 7 0;
#X connect 6 0 8 0;
#X connect 7 0 8 1;
#X connect 8 0 9 0;
#X connect 10 0 11 0;
#X connect 11 0 12 0;
#X connect 12 0 0 0;
#X connect 12 0 3 0;
#X restore 217 414 pd dry_wet;
#X obj 447 241 inlet;
#X connect 0 0 1 0;
#X connect 0 0 6 0;
#X connect 1 0 6 1;
#X connect 2 0 1 1;
#X connect 3 0 2 0;
#X connect 4 0 3 0;
#X connect 6 0 5 0;
#X connect 7 0 6 2;
#X restore 309 554 pd AM;
#X obj 1605 20 inlet;
#N canvas 951 1021 1920 976 delay 0;
#X obj 151 781 outlet~;
#X obj 831 156 inlet;
#X obj 707 130 inlet;
#X floatatom 256 564 5 0 0 0 - - - 0;
#X obj 254 655 *~;
#X obj 152 189 inlet~;
#X obj 707 154 / 10;
#X obj 469 424 *~ 0.75;
#X obj 246 332 delwrite~ audio-buffer-delay-right-2 5000;
#X obj 253 611 delread~ audio-buffer-delay-right-2;
#X connect 1 0 4 1;
#X connect 2 0 6 0;
#X connect 3 0 9 0;
#X connect 4 0 0 0;
#X connect 5 0 0 0;
#X connect 5 0 8 0;
#X connect 6 0 3 0;
#X connect 7 0 8 0;
#X connect 9 0 4 0;
#X connect 9 0 7 0;
#X restore 1574 545 pd delay;
#N canvas 1915 1021 1920 976 reverb 0;
#X obj 76 127 rev1~;
#X obj 75 66 inlet~;
#X obj 135 64 inlet;
#X obj 58 204 outlet~;
#N canvas 1074 274 1920 976 dry_wet 0;
#X obj 398 349 - 1;
#X floatatom 398 410 5 0 0 0 - - - 0;
#X obj 398 379 * -1;
#X floatatom 491 403 5 0 0 0 - - - 0;
#X obj 275 252 inlet~;
#X obj 351 250 inlet~;
#X obj 411 470 *~;
#X obj 490 472 *~;
#X obj 449 525 +~;
#X obj 449 549 outlet~;
#X obj 434 211 inlet;
#X obj 434 249 expr if ($f1 > 1 \, 1 \, $f1);
#X obj 434 273 expr if ($f1 < 0 \, 0 \, $f1);
#X text 344 223 WET INPUT;
#X text 261 223 DRY INPUT;
#X text 432 190 SLIDER;
#X connect 0 0 2 0;
#X connect 1 0 6 1;
#X connect 2 0 1 0;
#X connect 3 0 7 1;
#X connect 4 0 6 0;
#X connect 5 0 7 0;
#X connect 6 0 8 0;
#X connect 7 0 8 1;
#X connect 8 0 9 0;
#X connect 10 0 11 0;
#X connect 11 0 12 0;
#X connect 12 0 0 0;
#X connect 12 0 3 0;
#X restore 43 159 pd dry_wet;
#X connect 0 0 4 1;
#X connect 1 0 0 0;
#X connect 1 0 4 0;
#X connect 2 0 0 1;
#X connect 2 0 4 2;
#X connect 4 0 3 0;
#X restore 1663 544 pd reverb;
#N canvas 1916 0 1920 976 distortion 0;
#X obj 98 281 *~;
#X floatatom 140 255 5 0 0 0 - - - 0;
#X obj 98 397 clip~ -0.3 0.3;
#X obj 98 181 inlet~;
#X obj 172 162 inlet;
#X obj 163 204 * 100;
#X obj 68 507 outlet~;
#N canvas 1074 274 1920 976 dry_wet 0;
#X obj 398 349 - 1;
#X floatatom 398 410 5 0 0 0 - - - 0;
#X obj 398 379 * -1;
#X floatatom 491 403 5 0 0 0 - - - 0;
#X obj 275 252 inlet~;
#X obj 351 250 inlet~;
#X obj 411 470 *~;
#X obj 490 472 *~;
#X obj 449 525 +~;
#X obj 449 549 outlet~;
#X obj 434 211 inlet;
#X obj 434 249 expr if ($f1 > 1 \, 1 \, $f1);
#X obj 434 273 expr if ($f1 < 0 \, 0 \, $f1);
#X text 344 223 WET INPUT;
#X text 261 223 DRY INPUT;
#X text 432 190 SLIDER;
#X connect 0 0 2 0;
#X connect 1 0 6 1;
#X connect 2 0 1 0;
#X connect 3 0 7 1;
#X connect 4 0 6 0;
#X connect 5 0 7 0;
#X connect 6 0 8 0;
#X connect 7 0 8 1;
#X connect 8 0 9 0;
#X connect 10 0 11 0;
#X connect 11 0 12 0;
#X connect 12 0 0 0;
#X connect 12 0 3 0;
#X restore 69 448 pd dry_wet;
#X connect 0 0 2 0;
#X connect 1 0 0 1;
#X connect 2 0 7 1;
#X connect 3 0 0 0;
#X connect 3 0 7 0;
#X connect 4 0 5 0;
#X connect 4 0 7 2;
#X connect 5 0 1 0;
#X connect 7 0 6 0;
#X restore 1195 547 pd distortion;
#N canvas 1916 0 1920 976 chorus/flanger 0;
#X obj 448 251 expr~ $v1 * 2 - 1;
#X obj 1118 376 expr~ ($v1 + 1) /2;
#X obj 1121 477 +~ 5;
#X obj 447 187 inlet~;
#X obj 767 690 outlet~;
#X obj 1114 326 osc~ 2;
#X obj 1428 130 inlet;
#X floatatom 1428 166 5 0 0 0 - - - 0;
#X obj 1327 165 / 10000;
#X obj 1327 128 inlet;
#N canvas 1074 274 1920 976 dry_wet 0;
#X obj 398 349 - 1;
#X floatatom 398 410 5 0 0 0 - - - 0;
#X obj 398 379 * -1;
#X floatatom 491 403 5 0 0 0 - - - 0;
#X obj 275 252 inlet~;
#X obj 351 250 inlet~;
#X obj 411 470 *~;
#X obj 490 472 *~;
#X obj 449 525 +~;
#X obj 449 549 outlet~;
#X obj 434 211 inlet;
#X obj 434 249 expr if ($f1 > 1 \, 1 \, $f1);
#X obj 434 273 expr if ($f1 < 0 \, 0 \, $f1);
#X text 344 223 WET INPUT;
#X text 261 223 DRY INPUT;
#X text 432 190 SLIDER;
#X connect 0 0 2 0;
#X connect 1 0 6 1;
#X connect 2 0 1 0;
#X connect 3 0 7 1;
#X connect 4 0 6 0;
#X connect 5 0 7 0;
#X connect 6 0 8 0;
#X connect 7 0 8 1;
#X connect 8 0 9 0;
#X connect 10 0 11 0;
#X connect 11 0 12 0;
#X connect 12 0 0 0;
#X connect 12 0 3 0;
#X restore 768 642 pd dry_wet;
#X obj 1104 428 *~ 1;
#X obj 766 488 delread4~ \$0-buffer-right-2;
#X obj 1117 524 delread4~ \$0-buffer-right-2;
#X obj 448 283 delwrite~ \$0-buffer-right-2 100;
#X connect 0 0 14 0;
#X connect 1 0 11 0;
#X connect 2 0 13 0;
#X connect 3 0 0 0;
#X connect 3 0 10 0;
#X connect 5 0 1 0;
#X connect 6 0 7 0;
#X connect 7 0 10 2;
#X connect 8 0 5 0;
#X connect 9 0 8 0;
#X connect 10 0 4 0;
#X connect 11 0 2 0;
#X connect 12 0 10 1;
#X connect 13 0 10 1;
#X restore 1429 546 pd chorus/flanger;
#X obj 208 150 inlet~;
#X obj 1191 799 outlet~;
#N canvas -126 -28 1920 976 bitcrusher 0;
#X obj 244 229 expr~ round($v1 / $f2);
#X obj 397 124 inlet;
#X obj 244 143 inlet~;
#X obj 182 356 outlet~;
#X obj 243 267 *~;
#X obj 397 194 + 0.2;
#N canvas 1074 274 1920 976 dry_wet 0;
#X obj 398 349 - 1;
#X floatatom 398 410 5 0 0 0 - - - 0;
#X obj 398 379 * -1;
#X floatatom 491 403 5 0 0 0 - - - 0;
#X obj 275 252 inlet~;
#X obj 351 250 inlet~;
#X obj 411 470 *~;
#X obj 490 472 *~;
#X obj 449 525 +~;
#X obj 449 549 outlet~;
#X obj 434 211 inlet;
#X obj 434 249 expr if ($f1 > 1 \, 1 \, $f1);
#X obj 434 273 expr if ($f1 < 0 \, 0 \, $f1);
#X text 344 223 WET INPUT;
#X text 261 223 DRY INPUT;
#X text 432 190 SLIDER;
#X connect 0 0 2 0;
#X connect 1 0 6 1;
#X connect 2 0 1 0;
#X connect 3 0 7 1;
#X connect 4 0 6 0;
#X connect 5 0 7 0;
#X connect 6 0 8 0;
#X connect 7 0 8 1;
#X connect 8 0 9 0;
#X connect 10 0 11 0;
#X connect 11 0 12 0;
#X connect 12 0 0 0;
#X connect 12 0 3 0;
#X restore 181 308 pd dry_wet;
#X obj 397 148 / 20000;
#X obj 527 132 inlet;
#X floatatom 397 172 5 0 0 0 - - - 0;
#X connect 0 0 4 0;
#X connect 1 0 7 0;
#X connect 2 0 0 0;
#X connect 2 0 6 0;
#X connect 4 0 6 1;
#X connect 5 0 4 1;
#X connect 5 0 0 1;
#X connect 6 0 3 0;
#X connect 7 0 5 0;
#X connect 7 0 9 0;
#X connect 8 0 6 2;
#X restore 1308 543 pd bitcrusher;
#N canvas -40 43 1920 976 audio_router 0;
#X obj 1407 282 == 0;
#X obj 1461 281 == 1;
#X obj 1517 282 == 2;
#X obj 1572 284 == 3;
#X obj 760 505 *~;
#X obj 853 506 *~;
#X obj 947 503 *~;
#X obj 1032 498 *~;
#X obj 755 233 inlet~;
#X obj 1490 219 inlet;
#X obj 760 526 outlet~;
#X obj 853 527 outlet~;
#X obj 947 524 outlet~;
#X obj 1032 519 outlet~;
#X obj 1110 502 *~;
#X obj 1204 499 *~;
#X obj 1289 494 *~;
#X obj 1110 523 outlet~;
#X obj 1204 520 outlet~;
#X obj 1289 515 outlet~;
#X obj 1636 283 == 4;
#X obj 1692 284 == 5;
#X obj 1747 286 == 6;
#X obj 846 230 inlet~;
#X obj 940 227 inlet~;
#X obj 1026 226 inlet~;
#X obj 1110 228 inlet~;
#X obj 1204 225 inlet~;
#X obj 1290 224 inlet~;
#X connect 0 0 4 1;
#X connect 1 0 5 1;
#X connect 2 0 6 1;
#X connect 3 0 7 1;
#X connect 4 0 10 0;
#X connect 5 0 11 0;
#X connect 6 0 12 0;
#X connect 7 0 13 0;
#X connect 8 0 4 0;
#X connect 9 0 0 0;
#X connect 9 0 1 0;
#X connect 9 0 3 0;
#X connect 9 0 2 0;
#X connect 9 0 20 0;
#X connect 9 0 21 0;
#X connect 9 0 22 0;
#X connect 14 0 17 0;
#X connect 15 0 18 0;
#X connect 16 0 19 0;
#X connect 20 0 14 1;
#X connect 21 0 15 1;
#X connect 22 0 16 1;
#X connect 23 0 5 0;
#X connect 24 0 6 0;
#X connect 25 0 7 0;
#X connect 26 0 14 0;
#X connect 27 0 15 0;
#X connect 28 0 16 0;
#X restore 1115 675 pd audio_router;
#X f 17;
#N canvas 245 746 1920 976 AM 0;
#X obj 248 222 inlet~;
#X obj 249 310 *~;
#X obj 360 277 osc~;
#X floatatom 360 252 5 0 0 0 - - - 0;
#X obj 360 220 inlet;
#X obj 216 482 outlet~;
#N canvas 1074 274 1920 976 dry_wet 0;
#X obj 398 349 - 1;
#X floatatom 398 410 5 0 0 0 - - - 0;
#X obj 398 379 * -1;
#X floatatom 491 403 5 0 0 0 - - - 0;
#X obj 275 252 inlet~;
#X obj 351 250 inlet~;
#X obj 411 470 *~;
#X obj 490 472 *~;
#X obj 449 525 +~;
#X obj 449 549 outlet~;
#X obj 434 211 inlet;
#X obj 434 249 expr if ($f1 > 1 \, 1 \, $f1);
#X obj 434 273 expr if ($f1 < 0 \, 0 \, $f1);
#X text 344 223 WET INPUT;
#X text 261 223 DRY INPUT;
#X text 432 190 SLIDER;
#X connect 0 0 2 0;
#X connect 1 0 6 1;
#X connect 2 0 1 0;
#X connect 3 0 7 1;
#X connect 4 0 6 0;
#X connect 5 0 7 0;
#X connect 6 0 8 0;
#X connect 7 0 8 1;
#X connect 8 0 9 0;
#X connect 10 0 11 0;
#X connect 11 0 12 0;
#X connect 12 0 0 0;
#X connect 12 0 3 0;
#X restore 217 414 pd dry_wet;
#X obj 447 241 inlet;
#X connect 0 0 1 0;
#X connect 0 0 6 0;
#X connect 1 0 6 1;
#X connect 2 0 1 1;
#X connect 3 0 2 0;
#X connect 4 0 3 0;
#X connect 6 0 5 0;
#X connect 7 0 6 2;
#X restore 1109 547 pd AM;
#X connect 0 0 5 1;
#X connect 0 0 2 1;
#X connect 0 0 10 1;
#X connect 0 0 8 1;
#X connect 0 0 20 1;
#X connect 0 0 18 1;
#X connect 0 0 15 1;
#X connect 0 0 12 1;
#X connect 1 0 3 1;
#X connect 1 0 2 2;
#X connect 1 0 4 1;
#X connect 1 0 5 2;
#X connect 1 0 10 2;
#X connect 1 0 8 2;
#X connect 1 0 20 2;
#X connect 1 0 14 1;
#X connect 1 0 18 2;
#X connect 1 0 15 2;
#X connect 1 0 12 2;
#X connect 1 0 13 1;
#X connect 2 0 9 5;
#X connect 3 0 9 6;
#X connect 4 0 9 2;
#X connect 5 0 9 4;
#X connect 6 0 9 0;
#X connect 6 0 10 0;
#X connect 6 0 4 0;
#X connect 6 0 8 0;
#X connect 6 0 5 0;
#X connect 6 0 3 0;
#X connect 6 0 2 0;
#X connect 8 0 9 3;
#X connect 9 0 7 0;
#X connect 9 1 7 0;
#X connect 9 2 7 0;
#X connect 9 3 7 0;
#X connect 9 4 7 0;
#X connect 9 5 7 0;
#X connect 9 6 7 0;
#X connect 10 0 9 1;
#X connect 11 0 9 7;
#X connect 11 0 19 7;
#X connect 12 0 19 5;
#X connect 13 0 19 6;
#X connect 14 0 19 2;
#X connect 15 0 19 4;
#X connect 16 0 19 0;
#X connect 16 0 20 0;
#X connect 16 0 14 0;
#X connect 16 0 18 0;
#X connect 16 0 15 0;
#X connect 16 0 13 0;
#X connect 16 0 12 0;
#X connect 18 0 19 3;
#X connect 19 0 17 0;
#X connect 19 1 17 0;
#X connect 19 2 17 0;
#X connect 19 3 17 0;
#X connect 19 4 17 0;
#X connect 19 5 17 0;
#X connect 19 6 17 0;
#X connect 20 0 19 1;
#X restore 1398 948 pd FX;
#X f 19;
#N canvas 58 -13 1920 976 Gain 0;
#X obj 408 166 *~;
#X obj 409 202 env~;
#X obj 409 235 - 90;
#X obj 477 167 *~;
#X obj 478 203 env~;
#X obj 478 236 - 90;
#X obj 408 91 inlet~;
#X obj 492 90 inlet~;
#X obj 546 86 inlet;
#X obj 409 259 outlet;
#X obj 478 260 outlet;
#X obj 248 260 outlet~;
#X obj 331 261 outlet~;
#X connect 0 0 1 0;
#X connect 0 0 11 0;
#X connect 1 0 2 0;
#X connect 2 0 9 0;
#X connect 3 0 4 0;
#X connect 3 0 12 0;
#X connect 4 0 5 0;
#X connect 5 0 10 0;
#X connect 6 0 0 0;
#X connect 7 0 3 0;
#X connect 8 0 3 1;
#X connect 8 0 0 1;
#X restore 1398 877 pd Gain + dbMeter;
#X obj 1194 130 vu 40 320 empty dB_METER -1 -8 0 10 #404040 #000000 1 0;
#N canvas 773 161 1080 633 EQs 0;
#N canvas -56 23 1920 976 mid 0;
#X obj 583 189 inlet~;
#X obj 581 601 outlet~;
#X obj 735 474 *~;
#X obj 582 513 -~;
#X obj 681 357 vcf~ 0.5;
#X obj 951 187 inlet;
#X msg 707 292 800;
#X obj 707 217 loadbang;
#X obj 753 368 / -15;
#X floatatom 753 427 5 0 0 0 - - - 0;
#X connect 0 0 3 0;
#X connect 0 0 4 0;
#X connect 2 0 3 1;
#X connect 3 0 1 0;
#X connect 4 0 2 0;
#X connect 5 0 8 0;
#X connect 6 0 4 1;
#X connect 7 0 6 0;
#X connect 8 0 9 0;
#X connect 9 0 2 1;
#X restore 431 225 pd mid EQ;
#N canvas 1915 1021 1920 976 low 0;
#X obj 613 217 inlet~;
#X obj 609 613 outlet~;
#X obj 907 192 inlet;
#X obj 753 368 / -15;
#X floatatom 753 427 5 0 0 0 - - - 0;
#X obj 661 506 *~;
#X obj 614 576 -~;
#X obj 660 440 lop~ 400;
#X connect 0 0 7 0;
#X connect 0 0 6 0;
#X connect 2 0 3 0;
#X connect 3 0 4 0;
#X connect 4 0 5 1;
#X connect 5 0 6 1;
#X connect 6 0 1 0;
#X connect 7 0 5 0;
#X restore 431 189 pd low EQ;
#N canvas -9 -9 1920 976 high 0;
#X obj 613 217 inlet~;
#X obj 609 613 outlet~;
#X obj 880 224 inlet;
#X obj 753 368 / -15;
#X floatatom 753 427 5 0 0 0 - - - 0;
#X obj 661 506 *~;
#X obj 614 576 -~;
#X obj 660 440 hip~ 2500;
#X connect 0 0 6 0;
#X connect 0 0 7 0;
#X connect 2 0 3 0;
#X connect 3 0 4 0;
#X connect 4 0 5 1;
#X connect 5 0 6 1;
#X connect 6 0 1 0;
#X connect 7 0 5 0;
#X restore 432 262 pd high EQ;
#X obj 432 137 inlet~;
#X obj 621 120 inlet;
#X obj 688 119 inlet;
#X obj 745 119 inlet;
#X obj 432 286 outlet~;
#N canvas -472 83 1920 976 mid 0;
#X obj 583 189 inlet~;
#X obj 581 601 outlet~;
#X obj 735 474 *~;
#X obj 582 513 -~;
#X obj 681 357 vcf~ 0.5;
#X obj 951 187 inlet;
#X msg 707 292 800;
#X obj 707 217 loadbang;
#X obj 753 368 / -15;
#X floatatom 753 427 5 0 0 0 - - - 0;
#X connect 0 0 3 0;
#X connect 0 0 4 0;
#X connect 2 0 3 1;
#X connect 3 0 1 0;
#X connect 4 0 2 0;
#X connect 5 0 8 0;
#X connect 6 0 4 1;
#X connect 7 0 6 0;
#X connect 8 0 9 0;
#X connect 9 0 2 1;
#X restore 535 223 pd mid EQ;
#N canvas 1915 1021 1920 976 low 0;
#X obj 613 217 inlet~;
#X obj 609 613 outlet~;
#X obj 907 192 inlet;
#X obj 753 368 / -15;
#X floatatom 753 427 5 0 0 0 - - - 0;
#X obj 661 506 *~;
#X obj 614 576 -~;
#X obj 660 440 lop~ 400;
#X connect 0 0 7 0;
#X connect 0 0 6 0;
#X connect 2 0 3 0;
#X connect 3 0 4 0;
#X connect 4 0 5 1;
#X connect 5 0 6 1;
#X connect 6 0 1 0;
#X connect 7 0 5 0;
#X restore 535 187 pd low EQ;
#N canvas -9 -9 1920 976 high 0;
#X obj 613 217 inlet~;
#X obj 609 613 outlet~;
#X obj 880 224 inlet;
#X obj 753 368 / -15;
#X floatatom 753 427 5 0 0 0 - - - 0;
#X obj 661 506 *~;
#X obj 614 576 -~;
#X obj 660 440 hip~ 2500;
#X connect 0 0 6 0;
#X connect 0 0 7 0;
#X connect 2 0 3 0;
#X connect 3 0 4 0;
#X connect 4 0 5 1;
#X connect 5 0 6 1;
#X connect 6 0 1 0;
#X connect 7 0 5 0;
#X restore 536 260 pd high EQ;
#X obj 536 284 outlet~;
#X obj 536 141 inlet~;
#X connect 0 0 2 0;
#X connect 1 0 0 0;
#X connect 2 0 7 0;
#X connect 3 0 1 0;
#X connect 4 0 1 1;
#X connect 4 0 9 1;
#X connect 5 0 0 1;
#X connect 5 0 8 1;
#X connect 6 0 2 1;
#X connect 6 0 10 1;
#X connect 8 0 10 0;
#X connect 9 0 8 0;
#X connect 10 0 11 0;
#X connect 12 0 9 0;
#X restore 1398 918 pd EQs;
#X f 10;
#X floatatom 1458 770 5 0 0 0 - - - 0;
#X obj 1458 545 vradio 30 1 0 7 empty empty FX\ Selector 0 -10 0 12 #9c00ff #000000 #000000 0;
#X text 1288 581 1 Amplitude Modulation;
#X text 1289 611 2 Distortion;
#X text 1289 641 3 Bitcrusher;
#X text 1289 670 4 Chorus/flanger;
#X text 1289 700 5 Delay;
#X text 1288 733 7 Reverb;
#X text 1288 549 0 No effect;
#N canvas -584 498 1920 976 CUE 0;
#X obj 330 349 *~;
#X msg 323 304 0;
#X msg 370 305 1;
#X obj 330 258 select 0 1;
#X obj 323 285 bng 15 250 50 0 empty empty empty 17 7 0 10 #fcfcfc #000000 #000000;
#X obj 370 285 bng 15 250 50 0 empty empty empty 17 7 0 10 #fcfcfc #000000 #000000;
#X obj 552 187 inlet;
#X obj 329 386 outlet~;
#X obj 274 187 inlet~;
#X obj 490 349 *~;
#X msg 483 304 0;
#X msg 530 305 1;
#X obj 490 258 select 0 1;
#X obj 483 285 bng 15 250 50 0 empty empty empty 17 7 0 10 #fcfcfc #000000 #000000;
#X obj 530 285 bng 15 250 50 0 empty empty empty 17 7 0 10 #fcfcfc #000000 #000000;
#X obj 489 386 outlet~;
#X obj 434 187 inlet~;
#X connect 0 0 7 0;
#X connect 1 0 0 1;
#X connect 2 0 0 1;
#X connect 3 0 4 0;
#X connect 3 1 5 0;
#X connect 4 0 1 0;
#X connect 5 0 2 0;
#X connect 6 0 3 0;
#X connect 6 0 12 0;
#X connect 8 0 0 0;
#X connect 9 0 15 0;
#X connect 10 0 9 1;
#X connect 11 0 9 1;
#X connect 12 0 13 0;
#X connect 12 1 14 0;
#X connect 13 0 10 0;
#X connect 14 0 11 0;
#X connect 16 0 9 0;
#X restore 1542 597 pd CUE;
#N canvas 1916 0 1920 976 feedback 0;
#X obj 37 37 inlet~;
#X obj 142 288 *~;
#X obj 102 384 outlet~;
#X obj 446 28 inlet~;
#X obj 551 279 *~;
#X obj 511 375 outlet~;
#X obj 811 36 inlet;
#N canvas 1074 274 1920 976 dry_wet 0;
#X obj 398 349 - 1;
#X floatatom 398 410 5 0 0 0 - - - 0;
#X obj 398 379 * -1;
#X floatatom 491 403 5 0 0 0 - - - 0;
#X obj 275 252 inlet~;
#X obj 351 250 inlet~;
#X obj 411 470 *~;
#X obj 490 472 *~;
#X obj 449 525 +~;
#X obj 449 549 outlet~;
#X obj 434 211 inlet;
#X obj 434 249 expr if ($f1 > 1 \, 1 \, $f1);
#X obj 434 273 expr if ($f1 < 0 \, 0 \, $f1);
#X text 344 223 WET INPUT;
#X text 261 223 DRY INPUT;
#X text 432 190 SLIDER;
#X connect 0 0 2 0;
#X connect 1 0 6 1;
#X connect 2 0 1 0;
#X connect 3 0 7 1;
#X connect 4 0 6 0;
#X connect 5 0 7 0;
#X connect 6 0 8 0;
#X connect 7 0 8 1;
#X connect 8 0 9 0;
#X connect 10 0 11 0;
#X connect 11 0 12 0;
#X connect 12 0 0 0;
#X connect 12 0 3 0;
#X restore 101 344 pd dry_wet;
#N canvas 1074 274 1920 976 dry_wet 0;
#X obj 398 349 - 1;
#X floatatom 398 410 5 0 0 0 - - - 0;
#X obj 398 379 * -1;
#X floatatom 491 403 5 0 0 0 - - - 0;
#X obj 275 252 inlet~;
#X obj 351 250 inlet~;
#X obj 411 470 *~;
#X obj 490 472 *~;
#X obj 449 525 +~;
#X obj 449 549 outlet~;
#X obj 434 211 inlet;
#X obj 434 249 expr if ($f1 > 1 \, 1 \, $f1);
#X obj 434 273 expr if ($f1 < 0 \, 0 \, $f1);
#X text 344 223 WET INPUT;
#X text 261 223 DRY INPUT;
#X text 432 190 SLIDER;
#X connect 0 0 2 0;
#X connect 1 0 6 1;
#X connect 2 0 1 0;
#X connect 3 0 7 1;
#X connect 4 0 6 0;
#X connect 5 0 7 0;
#X connect 6 0 8 0;
#X connect 7 0 8 1;
#X connect 8 0 9 0;
#X connect 10 0 11 0;
#X connect 11 0 12 0;
#X connect 12 0 0 0;
#X connect 12 0 3 0;
#X restore 510 342 pd dry_wet;
#X obj 142 240 delread~ buffer-feedback-left-2 10;
#X obj 97 183 delwrite~ buffer-feedback-left-2 1000;
#X obj 506 174 delwrite~ buffer-feedback-right-2 1000;
#X obj 551 231 delread~ buffer-feedback-right-2 10;
#X connect 0 0 7 0;
#X connect 0 0 10 0;
#X connect 1 0 7 1;
#X connect 1 0 10 0;
#X connect 3 0 8 0;
#X connect 3 0 11 0;
#X connect 4 0 8 1;
#X connect 4 0 11 0;
#X connect 6 0 4 1;
#X connect 6 0 1 1;
#X connect 6 0 7 2;
#X connect 6 0 8 2;
#X connect 7 0 2 0;
#X connect 8 0 5 0;
#X connect 9 0 1 0;
#X connect 12 0 4 0;
#X restore 1397 1030 pd feedback;
#X obj 1542 621 dac~ 3 4;
#N canvas 662 40 906 634 input 0;
#X obj 547 207 openpanel;
#X msg 550 233 open \$1;
#X msg 503 219 1;
#X obj 549 288 readsf~ 2;
#X obj 611 152 inlet;
#N canvas 131 204 958 966 audio_router 0;
#X obj 919 336 == 0;
#X obj 973 335 == 1;
#X obj 760 505 *~;
#X obj 853 506 *~;
#X obj 755 233 inlet~;
#X obj 1002 273 inlet;
#X obj 760 526 outlet~;
#X obj 853 527 outlet~;
#X obj 846 230 inlet~;
#X floatatom 1002 297 5 0 0 0 - - - 0;
#X connect 0 0 2 1;
#X connect 1 0 3 1;
#X connect 2 0 6 0;
#X connect 3 0 7 0;
#X connect 4 0 2 0;
#X connect 5 0 0 0;
#X connect 5 0 1 0;
#X connect 5 0 9 0;
#X connect 8 0 3 0;
#X restore 288 394 pd audio_router;
#X f 17;
#X obj 297 294 adc~ 1 2;
#X obj 340 467 outlet~;
#N canvas 1884 43 1920 976 audio_router 0;
#X obj 919 336 == 0;
#X obj 973 335 == 1;
#X obj 760 505 *~;
#X obj 853 506 *~;
#X obj 755 233 inlet~;
#X obj 1002 273 inlet;
#X obj 760 526 outlet~;
#X obj 853 527 outlet~;
#X obj 846 230 inlet~;
#X connect 0 0 2 1;
#X connect 1 0 3 1;
#X connect 2 0 6 0;
#X connect 3 0 7 0;
#X connect 4 0 2 0;
#X connect 5 0 0 0;
#X connect 5 0 1 0;
#X connect 8 0 3 0;
#X restore 692 377 pd audio_router;
#X f 17;
#X obj 965 145 inlet;
#X obj 744 450 outlet~;
#X floatatom 965 169 5 0 0 0 - - - 0;
#X obj 665 152 inlet;
#X connect 0 0 1 0;
#X connect 1 0 3 0;
#X connect 2 0 3 0;
#X connect 3 0 5 1;
#X connect 3 1 8 1;
#X connect 4 0 0 0;
#X connect 5 0 7 0;
#X connect 5 1 7 0;
#X connect 6 0 5 0;
#X connect 6 1 8 0;
#X connect 8 0 10 0;
#X connect 8 1 10 0;
#X connect 9 0 8 2;
#X connect 9 0 5 2;
#X connect 9 0 11 0;
#X connect 12 0 2 0;
#X restore 281 844 pd input;
#X obj 285 290 bng 60 250 50 0 empty empty Open\ a\ file 0 -10 0 12 #ff8300 #000000 #000000;
#X obj 284 375 bng 60 250 50 0 empty empty Play 0 -10 0 12 #00ff04 #000000 #000000;
#X obj 285 145 vradio 60 1 0 2 empty empty AUDIO\ FROM: 0 -10 0 12 #faff00 #000000 #000000 0;
#X text 361 162 Your sound card;
#X text 363 225 A file (.wav);
#N canvas 125 44 906 634 input 0;
#X obj 544 206 openpanel;
#X msg 547 232 open \$1;
#X msg 500 218 1;
#X obj 546 287 readsf~ 2;
#X obj 611 152 inlet;
#X obj 732 146 inlet;
#N canvas 1884 43 1920 976 audio_router 0;
#X obj 919 336 == 0;
#X obj 973 335 == 1;
#X obj 760 505 *~;
#X obj 853 506 *~;
#X obj 755 233 inlet~;
#X obj 1002 273 inlet;
#X obj 760 526 outlet~;
#X obj 853 527 outlet~;
#X obj 846 230 inlet~;
#X connect 0 0 2 1;
#X connect 1 0 3 1;
#X connect 2 0 6 0;
#X connect 3 0 7 0;
#X connect 4 0 2 0;
#X connect 5 0 0 0;
#X connect 5 0 1 0;
#X connect 8 0 3 0;
#X restore 288 394 pd audio_router;
#X f 17;
#X obj 340 467 outlet~;
#N canvas 1884 43 1920 976 audio_router 0;
#X obj 919 336 == 0;
#X obj 973 335 == 1;
#X obj 760 505 *~;
#X obj 853 506 *~;
#X obj 755 233 inlet~;
#X obj 1002 273 inlet;
#X obj 760 526 outlet~;
#X obj 853 527 outlet~;
#X obj 846 230 inlet~;
#X connect 0 0 2 1;
#X connect 1 0 3 1;
#X connect 2 0 6 0;
#X connect 3 0 7 0;
#X connect 4 0 2 0;
#X connect 5 0 0 0;
#X connect 5 0 1 0;
#X connect 8 0 3 0;
#X restore 692 377 pd audio_router;
#X f 17;
#X obj 965 145 inlet;
#X obj 744 450 outlet~;
#X obj 215 298 adc~ 3 4;
#X connect 0 0 1 0;
#X connect 1 0 3 0;
#X connect 2 0 3 0;
#X connect 3 0 6 1;
#X connect 3 1 8 1;
#X connect 4 0 0 0;
#X connect 5 0 2 0;
#X connect 6 0 7 0;
#X connect 6 1 7 0;
#X connect 8 0 10 0;
#X connect 8 1 10 0;
#X connect 9 0 8 2;
#X connect 9 0 6 2;
#X connect 11 0 6 0;
#X connect 11 1 8 0;
#X restore 1398 848 pd input;
#X obj 1716 265 bng 60 250 50 0 empty empty Open\ a\ file 0 -10 0 12 #ff8300 #000000 #000000;
#X obj 1715 350 bng 60 250 50 0 empty empty Play 0 -10 0 12 #00ff04 #000000 #000000;
#X obj 1716 120 vradio 60 1 0 2 empty empty AUDIO\ FROM: 0 -10 0 12 #faff00 #000000 #000000 0;
#X text 1792 137 Your sound card;
#X text 1794 200 A file (.wav);
#X obj 1027 681 bng 30 250 50 0 empty empty empty 17 7 0 10 #9c9c9c #000000 #000000;
#X connect 0 0 53 4;
#X connect 1 0 5 0;
#X connect 2 0 53 7;
#X connect 3 0 4 0;
#X connect 3 0 8 0;
#X connect 3 0 13 0;
#X connect 3 0 17 0;
#X connect 3 0 24 0;
#X connect 3 0 28 0;
#X connect 4 0 1 0;
#X connect 5 0 53 6;
#X connect 6 0 42 3;
#X connect 7 0 6 0;
#X connect 8 0 7 0;
#X connect 9 0 8 0;
#X connect 10 0 42 2;
#X connect 11 0 10 0;
#X connect 12 0 13 0;
#X connect 13 0 11 0;
#X connect 14 0 42 4;
#X connect 15 0 14 0;
#X connect 16 0 17 0;
#X connect 17 0 15 0;
#X connect 18 0 20 0;
#X connect 20 0 40 2;
#X connect 21 0 52 2;
#X connect 22 0 23 2;
#X connect 23 0 54 0;
#X connect 23 1 54 1;
#X connect 24 0 22 0;
#X connect 25 0 24 0;
#X connect 26 0 29 0;
#X connect 26 0 39 3;
#X connect 27 0 28 0;
#X connect 28 0 26 0;
#X connect 29 0 30 0;
#X connect 31 0 33 0;
#X connect 32 0 34 0;
#X connect 33 0 54 2;
#X connect 34 0 31 0;
#X connect 35 0 37 0;
#X connect 35 0 39 2;
#X connect 36 0 38 0;
#X connect 38 0 35 0;
#X connect 39 0 23 0;
#X connect 39 1 23 1;
#X connect 40 0 42 0;
#X connect 40 1 42 1;
#X connect 40 2 19 0;
#X connect 40 3 41 0;
#X connect 42 0 39 0;
#X connect 42 1 39 1;
#X connect 43 0 39 4;
#X connect 44 0 43 0;
#X connect 52 0 56 0;
#X connect 52 1 56 1;
#X connect 53 0 55 0;
#X connect 53 1 55 1;
#X connect 54 0 52 0;
#X connect 54 0 53 0;
#X connect 54 1 53 1;
#X connect 54 1 52 1;
#X connect 57 0 53 5;
#X connect 58 0 61 0;
#X connect 58 0 66 0;
#X connect 58 0 70 0;
#X connect 58 0 77 0;
#X connect 58 0 81 0;
#X connect 59 0 95 3;
#X connect 60 0 59 0;
#X connect 61 0 60 0;
#X connect 62 0 61 0;
#X connect 63 0 95 2;
#X connect 64 0 63 0;
#X connect 65 0 66 0;
#X connect 66 0 64 0;
#X connect 67 0 95 4;
#X connect 68 0 67 0;
#X connect 69 0 70 0;
#X connect 70 0 68 0;
#X connect 71 0 73 0;
#X connect 73 0 93 2;
#X connect 74 0 105 2;
#X connect 75 0 76 2;
#X connect 76 0 106 0;
#X connect 76 1 106 1;
#X connect 77 0 75 0;
#X connect 78 0 77 0;
#X connect 79 0 82 0;
#X connect 79 0 92 3;
#X connect 80 0 81 0;
#X connect 81 0 79 0;
#X connect 82 0 83 0;
#X connect 84 0 86 0;
#X connect 85 0 87 0;
#X connect 86 0 106 2;
#X connect 87 0 84 0;
#X connect 88 0 90 0;
#X connect 88 0 92 2;
#X connect 89 0 91 0;
#X connect 91 0 88 0;
#X connect 92 0 76 0;
#X connect 92 1 76 1;
#X connect 93 0 95 0;
#X connect 93 1 95 1;
#X connect 93 2 72 0;
#X connect 93 3 94 0;
#X connect 95 0 92 0;
#X connect 95 1 92 1;
#X connect 96 0 92 4;
#X connect 97 0 96 0;
#X connect 105 0 107 0;
#X connect 105 1 107 1;
#X connect 106 0 105 0;
#X connect 106 0 53 2;
#X connect 106 1 105 1;
#X connect 106 1 53 3;
#X connect 108 0 40 0;
#X connect 108 1 40 1;
#X connect 109 0 108 0;
#X connect 110 0 108 1;
#X connect 111 0 108 2;
#X connect 114 0 93 0;
#X connect 114 1 93 1;
#X connect 115 0 114 0;
#X connect 116 0 114 1;
#X connect 117 0 114 2;
#X connect 120 0 4 0;
